<svg xmlns="http://www.w3.org/2000/svg" xmlns:xlink="http://www.w3.org/1999/xlink" width="321" zoomAndPan="magnify" viewBox="0 0 240.75 141.750002" height="188" preserveAspectRatio="xMidYMid meet" version="1.0"><defs><g/></defs><g fill="#dc3c4d" fill-opacity="0.302"><g transform="translate(11.45801, 86.05366)"><g><path d="M 13.742188 15.929688 L 14.167969 15.929688 C 18 15.140625 21.101562 7.359375 22.253906 3.527344 C 22.679688 2.3125 23.230469 1.460938 24.140625 0.546875 C 27.789062 -3.160156 31.4375 -6.808594 35.328125 -10.214844 C 35.816406 -10.640625 36.242188 -11.007812 36.667969 -11.433594 L 37.214844 -11.980469 C 37.519531 -12.40625 37.519531 -12.769531 37.214844 -13.074219 C 37.03125 -13.195312 36.847656 -13.257812 36.667969 -13.257812 C 36.484375 -13.257812 36.300781 -13.195312 36.121094 -13.074219 C 36 -13.011719 35.875 -12.890625 35.816406 -12.832031 C 35.695312 -12.707031 35.574219 -12.585938 35.511719 -12.527344 C 31.863281 -9.304688 28.398438 -6.019531 24.992188 -2.554688 C 24.808594 -2.371094 24.628906 -2.128906 24.324219 -2.128906 L 24.140625 -2.128906 C 23.957031 -2.433594 24.019531 -2.796875 24.203125 -3.101562 C 25.722656 -9.363281 26.878906 -15.445312 28.09375 -21.769531 C 28.152344 -22.195312 28.214844 -22.4375 28.214844 -22.742188 C 28.214844 -23.105469 28.09375 -23.351562 27.910156 -23.410156 C 27.667969 -23.472656 27.484375 -23.53125 27.425781 -23.53125 C 27.300781 -23.53125 27.121094 -23.472656 26.9375 -23.351562 C 26.511719 -22.925781 26.148438 -22.5 25.78125 -22.011719 C 24.203125 -20.1875 22.621094 -18.363281 21.101562 -16.480469 C 19.519531 -14.59375 17.9375 -12.769531 16.355469 -10.945312 C 15.445312 -9.789062 12.34375 -6.628906 10.398438 -4.804688 C 8.332031 -2.859375 5.230469 -0.488281 3.527344 -0.488281 C 2.554688 -0.488281 1.945312 -1.277344 1.703125 -2.859375 C 1.582031 -3.285156 1.582031 -3.832031 1.640625 -4.4375 C 1.703125 -5.109375 1.761719 -5.714844 1.945312 -6.386719 C 3.890625 -14.59375 8.695312 -24.808594 15.382812 -30.039062 C 16.78125 -31.195312 18.730469 -32.289062 20.613281 -32.289062 C 21.828125 -32.289062 22.5 -31.5 22.621094 -29.855469 C 22.621094 -27.972656 22.195312 -26.390625 21.527344 -24.628906 C 20.613281 -22.5 19.703125 -20.554688 18.546875 -18.605469 C 18.484375 -18.425781 18.363281 -18.242188 18.242188 -18.058594 C 18.121094 -17.878906 18 -17.757812 17.9375 -17.574219 C 17.878906 -17.332031 17.9375 -17.148438 18.121094 -17.027344 C 18.179688 -16.964844 18.363281 -16.964844 18.546875 -16.964844 L 18.667969 -16.964844 C 20.429688 -17.757812 23.53125 -25.355469 24.019531 -27.910156 C 24.140625 -28.457031 24.203125 -29.066406 24.203125 -29.675781 C 24.203125 -30.28125 24.078125 -30.890625 23.898438 -31.4375 C 23.410156 -33.078125 22.316406 -33.871094 20.675781 -33.871094 C 16.539062 -33.871094 12.464844 -29.976562 9.910156 -26.753906 C 5.109375 -20.855469 2.1875 -14.105469 0.425781 -6.75 C 0.183594 -5.59375 -0.0625 -4.5625 0 -3.40625 C 0.183594 -1.214844 1.15625 1.15625 3.40625 1.15625 C 3.464844 1.15625 3.585938 1.15625 3.648438 1.15625 C 3.710938 1.09375 3.832031 1.09375 3.890625 1.09375 C 7.964844 0.609375 15.6875 -7.539062 18.304688 -10.703125 L 24.503906 -18 C 24.6875 -18.179688 24.808594 -18.425781 24.992188 -18.667969 C 25.113281 -18.851562 25.355469 -18.972656 25.722656 -18.972656 C 25.902344 -18.546875 25.78125 -18.058594 25.722656 -17.632812 C 24.566406 -11.796875 23.351562 -6.140625 21.828125 -0.363281 C 21.585938 0.546875 21.101562 1.398438 20.429688 2.1875 C 18.242188 4.5 12.464844 10.882812 12.160156 13.984375 C 12.039062 15.261719 12.585938 15.929688 13.742188 15.929688 Z M 14.351562 14.167969 C 14.230469 14.230469 14.105469 14.230469 13.984375 14.105469 C 13.925781 14.046875 13.863281 13.925781 13.863281 13.804688 C 13.925781 12.890625 14.410156 12.160156 14.898438 11.492188 C 15.382812 10.824219 15.871094 10.15625 16.417969 9.484375 C 16.964844 8.816406 17.453125 8.085938 18 7.417969 C 18.179688 7.113281 18.425781 6.808594 18.667969 6.628906 C 18.910156 6.386719 19.09375 6.082031 19.214844 5.777344 C 19.519531 6.082031 19.519531 6.386719 19.335938 6.808594 C 18.546875 8.9375 17.574219 10.945312 16.175781 12.707031 C 15.628906 13.378906 15.082031 13.863281 14.351562 14.167969 Z M 14.351562 14.167969 "/></g></g></g><g fill="#dc3c4d" fill-opacity="0.302"><g transform="translate(45.813852, 86.05366)"><g><path d="M 2.859375 -2.554688 C 7.054688 -2.554688 13.4375 -8.757812 16.355469 -11.859375 C 16.601562 -12.101562 16.78125 -12.28125 16.84375 -12.464844 C 17.027344 -12.769531 16.964844 -13.074219 16.660156 -13.378906 C 16.539062 -13.5 16.417969 -13.558594 16.234375 -13.558594 C 16.113281 -13.558594 15.929688 -13.5 15.75 -13.378906 C 15.566406 -13.195312 15.382812 -13.011719 15.203125 -12.832031 C 15.019531 -12.648438 14.777344 -12.464844 14.59375 -12.28125 C 13.863281 -11.613281 13.132812 -10.945312 12.464844 -10.277344 C 11.734375 -9.609375 11.007812 -8.878906 10.277344 -8.210938 C 8.511719 -6.566406 5.714844 -4.621094 3.285156 -4.136719 C 2.128906 -4.136719 1.460938 -4.136719 1.214844 -5.535156 C 0.914062 -6.324219 0.851562 -6.992188 1.035156 -7.660156 C 1.09375 -7.964844 1.277344 -8.148438 1.519531 -8.210938 C 4.4375 -8.511719 8.269531 -12.101562 8.757812 -15.082031 C 8.9375 -16.480469 8.148438 -17.332031 6.933594 -17.332031 C 6.871094 -17.332031 6.75 -17.332031 6.6875 -17.332031 C 6.628906 -17.269531 6.507812 -17.269531 6.445312 -17.269531 C 3.222656 -16.78125 0.851562 -12.527344 -0.183594 -9.667969 C -0.425781 -8.757812 -0.667969 -7.90625 -0.609375 -6.871094 C -0.667969 -6.203125 -0.488281 -5.472656 -0.242188 -4.804688 C 0.183594 -3.285156 1.214844 -2.554688 2.859375 -2.554688 Z M 2.3125 -10.035156 C 2.25 -9.972656 2.128906 -10.035156 1.945312 -10.09375 C 1.886719 -10.09375 1.824219 -10.214844 1.824219 -10.398438 C 2.492188 -12.28125 4.5625 -15.324219 6.566406 -15.628906 C 6.871094 -15.6875 7.054688 -15.566406 7.113281 -15.140625 C 7.113281 -13.195312 3.890625 -10.882812 2.3125 -10.035156 Z M 2.3125 -10.035156 "/></g></g></g><g fill="#dc3c4d" fill-opacity="0.302"><g transform="translate(59.677801, 86.05366)"><g><path d="M 2.859375 -2.554688 C 7.054688 -2.554688 13.4375 -8.757812 16.355469 -11.859375 C 16.601562 -12.101562 16.78125 -12.28125 16.84375 -12.464844 C 17.027344 -12.769531 16.964844 -13.074219 16.660156 -13.378906 C 16.539062 -13.5 16.417969 -13.558594 16.234375 -13.558594 C 16.113281 -13.558594 15.929688 -13.5 15.75 -13.378906 C 15.566406 -13.195312 15.382812 -13.011719 15.203125 -12.832031 C 15.019531 -12.648438 14.777344 -12.464844 14.59375 -12.28125 C 13.863281 -11.613281 13.132812 -10.945312 12.464844 -10.277344 C 11.734375 -9.609375 11.007812 -8.878906 10.277344 -8.210938 C 8.511719 -6.566406 5.714844 -4.621094 3.285156 -4.136719 C 2.128906 -4.136719 1.460938 -4.136719 1.214844 -5.535156 C 0.914062 -6.324219 0.851562 -6.992188 1.035156 -7.660156 C 1.09375 -7.964844 1.277344 -8.148438 1.519531 -8.210938 C 4.4375 -8.511719 8.269531 -12.101562 8.757812 -15.082031 C 8.9375 -16.480469 8.148438 -17.332031 6.933594 -17.332031 C 6.871094 -17.332031 6.75 -17.332031 6.6875 -17.332031 C 6.628906 -17.269531 6.507812 -17.269531 6.445312 -17.269531 C 3.222656 -16.78125 0.851562 -12.527344 -0.183594 -9.667969 C -0.425781 -8.757812 -0.667969 -7.90625 -0.609375 -6.871094 C -0.667969 -6.203125 -0.488281 -5.472656 -0.242188 -4.804688 C 0.183594 -3.285156 1.214844 -2.554688 2.859375 -2.554688 Z M 2.3125 -10.035156 C 2.25 -9.972656 2.128906 -10.035156 1.945312 -10.09375 C 1.886719 -10.09375 1.824219 -10.214844 1.824219 -10.398438 C 2.492188 -12.28125 4.5625 -15.324219 6.566406 -15.628906 C 6.871094 -15.6875 7.054688 -15.566406 7.113281 -15.140625 C 7.113281 -13.195312 3.890625 -10.882812 2.3125 -10.035156 Z M 2.3125 -10.035156 "/></g></g></g><g fill="#dc3c4d" fill-opacity="0.302"><g transform="translate(73.54175, 86.05366)"><g><path d="M 1.09375 4.316406 C 2.066406 4.316406 3.222656 3.464844 3.769531 2.738281 C 5.714844 0.488281 7.90625 -2.492188 9.910156 -5.230469 C 11.613281 -7.539062 13.863281 -10.640625 15.082031 -12.101562 C 15.203125 -12.222656 15.261719 -12.34375 15.261719 -12.464844 C 15.445312 -12.832031 15.382812 -13.132812 15.082031 -13.378906 C 14.898438 -13.4375 14.777344 -13.5 14.65625 -13.5 C 14.59375 -13.5 14.59375 -13.5 14.53125 -13.5 C 14.472656 -13.4375 14.472656 -13.4375 14.410156 -13.4375 C 14.105469 -13.316406 13.863281 -13.132812 13.683594 -12.953125 C 13.5 -12.707031 13.257812 -12.464844 13.074219 -12.222656 C 11.308594 -10.457031 5.960938 -2.433594 3.40625 0.789062 C 3.101562 1.15625 2.796875 1.519531 2.492188 1.886719 C 2.1875 2.1875 1.824219 2.433594 1.277344 2.492188 C 0.363281 1.761719 0.667969 0.667969 0.730469 -0.242188 C 0.914062 -2.371094 1.15625 -4.316406 1.640625 -6.324219 C 2.433594 -9.851562 5.59375 -19.519531 6.992188 -22.621094 C 7.296875 -23.410156 7.90625 -23.777344 8.757812 -23.835938 L 21.828125 -24.992188 C 22.132812 -25.054688 22.378906 -25.054688 22.621094 -25.113281 C 22.863281 -25.113281 23.105469 -25.175781 23.410156 -25.234375 C 23.652344 -25.296875 23.777344 -25.539062 23.777344 -25.84375 C 23.714844 -26.269531 23.53125 -26.453125 23.289062 -26.453125 L 21.101562 -26.453125 C 19.398438 -26.269531 17.574219 -26.085938 15.566406 -25.964844 C 13.558594 -25.78125 11.734375 -25.601562 10.035156 -25.417969 C 9.972656 -25.417969 9.851562 -25.417969 9.730469 -25.417969 C 9.609375 -25.355469 9.484375 -25.355469 9.363281 -25.355469 C 9.121094 -25.355469 8.878906 -25.417969 8.574219 -25.476562 C 8.574219 -25.78125 8.632812 -26.085938 8.757812 -26.328125 C 8.816406 -26.511719 8.9375 -26.753906 9 -26.9375 C 9.789062 -28.578125 10.582031 -30.160156 11.25 -31.800781 C 11.554688 -32.351562 11.613281 -32.835938 11.554688 -33.140625 C 11.433594 -33.445312 11.25 -33.566406 11.007812 -33.566406 C 10.582031 -33.566406 10.15625 -33.199219 9.730469 -32.472656 C 9.425781 -31.984375 9.121094 -31.5 8.878906 -31.011719 C 8.574219 -30.527344 8.332031 -30.039062 8.027344 -29.550781 L 6.386719 -25.902344 C 6.082031 -25.234375 5.59375 -24.929688 4.863281 -24.871094 C 3.832031 -24.75 2.738281 -24.628906 1.640625 -24.503906 C 0.546875 -24.382812 -0.546875 -24.261719 -1.640625 -24.078125 C -1.945312 -24.019531 -2.25 -23.957031 -2.554688 -23.898438 C -2.796875 -23.835938 -3.039062 -23.714844 -3.34375 -23.652344 C -3.648438 -23.59375 -3.710938 -23.351562 -3.648438 -22.984375 C -3.585938 -22.804688 -3.464844 -22.679688 -3.222656 -22.621094 C -3.039062 -22.558594 -2.859375 -22.558594 -2.554688 -22.558594 C -2.066406 -22.558594 -1.519531 -22.679688 -1.035156 -22.742188 C -0.242188 -22.804688 0.609375 -22.925781 1.460938 -23.046875 C 2.25 -23.167969 3.101562 -23.289062 3.890625 -23.351562 L 4.378906 -23.351562 C 5.109375 -23.351562 5.167969 -23.046875 4.863281 -22.132812 C 4.4375 -21.101562 4.136719 -20.128906 3.710938 -18.972656 C 1.703125 -13.5 -0.851562 -5.167969 -0.851562 0.730469 C -0.851562 2.128906 -0.488281 4.316406 1.09375 4.316406 Z M 1.09375 4.316406 "/></g></g></g><g fill="#dc3c4d" fill-opacity="0.302"><g transform="translate(85.763919, 86.05366)"><g><path d="M 1.15625 1.945312 C 1.335938 1.945312 1.582031 1.824219 1.886719 1.640625 C 2.3125 1.335938 2.613281 0.914062 2.859375 0.363281 C 3.34375 -0.488281 3.832031 -1.335938 4.257812 -2.25 C 5.960938 -5.777344 8.269531 -10.582031 10.945312 -13.558594 C 11.128906 -13.742188 11.371094 -13.984375 11.675781 -14.167969 C 11.734375 -14.230469 11.796875 -14.230469 11.859375 -14.230469 C 12.039062 -14.230469 12.101562 -14.167969 12.101562 -13.984375 C 12.160156 -13.683594 12.160156 -13.4375 12.160156 -13.195312 C 12.160156 -12.953125 12.160156 -12.707031 12.160156 -12.40625 C 12.101562 -11.128906 12.101562 -9.851562 12.34375 -8.632812 C 12.648438 -7.175781 13.4375 -6.445312 14.65625 -6.445312 C 16.234375 -6.445312 22.804688 -10.882812 23.289062 -12.648438 C 23.351562 -12.953125 23.230469 -13.195312 22.984375 -13.378906 C 22.925781 -13.4375 22.863281 -13.4375 22.804688 -13.5 C 22.742188 -13.558594 22.621094 -13.558594 22.558594 -13.558594 C 22.4375 -13.558594 22.316406 -13.5 22.253906 -13.4375 C 22.011719 -13.257812 21.769531 -13.011719 21.585938 -12.769531 C 20.429688 -11.613281 16.90625 -8.9375 15.445312 -8.269531 C 15.203125 -8.148438 14.957031 -8.085938 14.714844 -8.085938 C 14.289062 -8.085938 13.984375 -8.453125 13.863281 -9.121094 C 13.804688 -9.363281 13.742188 -9.609375 13.742188 -9.910156 C 13.742188 -10.15625 13.742188 -10.398438 13.742188 -10.703125 C 13.683594 -11.1875 13.683594 -11.675781 13.742188 -12.160156 C 13.742188 -12.648438 13.742188 -13.132812 13.742188 -13.683594 C 13.742188 -13.925781 13.742188 -14.167969 13.804688 -14.472656 C 13.804688 -14.714844 13.742188 -14.957031 13.683594 -15.261719 C 13.558594 -16.054688 13.132812 -16.480469 12.40625 -16.480469 C 12.039062 -16.480469 11.734375 -16.355469 11.492188 -16.175781 C 8.332031 -13.984375 4.5625 -6.628906 2.917969 -3.160156 C 2.738281 -2.859375 2.613281 -2.554688 2.492188 -2.25 C 2.371094 -1.945312 2.128906 -1.640625 1.703125 -1.335938 C 1.640625 -1.761719 1.582031 -1.886719 1.582031 -2.128906 C 1.582031 -6.386719 3.464844 -16.175781 5.835938 -19.945312 C 9 -24.808594 11.433594 -29.796875 13.804688 -35.085938 C 13.925781 -35.390625 14.046875 -35.695312 14.167969 -36 C 14.289062 -36.300781 14.410156 -36.605469 14.472656 -36.910156 C 14.53125 -37.09375 14.59375 -37.214844 14.59375 -37.398438 C 14.59375 -37.578125 14.59375 -37.699219 14.59375 -37.882812 C 14.59375 -38.1875 14.410156 -38.371094 13.984375 -38.371094 C 13.925781 -38.371094 13.863281 -38.371094 13.804688 -38.308594 C 13.5 -38.125 13.195312 -37.945312 13.011719 -37.761719 C 8.878906 -32.351562 5.65625 -25.476562 3.527344 -19.09375 C 3.285156 -18.425781 3.039062 -17.816406 2.859375 -17.207031 C 2.613281 -16.601562 2.3125 -15.992188 1.886719 -15.445312 C 1.824219 -15.261719 1.703125 -15.140625 1.640625 -14.957031 C 1.519531 -14.777344 1.519531 -14.53125 1.582031 -14.351562 C 1.761719 -13.925781 1.824219 -13.5 1.761719 -13.132812 C 1.640625 -12.769531 1.519531 -12.40625 1.460938 -12.039062 C 1.335938 -11.25 1.214844 -10.457031 1.035156 -9.730469 C 0.851562 -8.9375 0.667969 -8.148438 0.546875 -7.359375 C 0.121094 -4.984375 -0.183594 -2.796875 0 -0.425781 C 0 0.121094 0.0625 0.667969 0.183594 1.15625 C 0.363281 1.703125 0.730469 1.945312 1.15625 1.945312 Z M 8.511719 -27.242188 C 8.816406 -27.546875 8.878906 -27.851562 8.9375 -28.277344 C 9 -27.972656 8.878906 -27.667969 8.574219 -27.300781 L 8.574219 -27.242188 Z M 9.058594 -28.398438 C 9.242188 -28.578125 9.363281 -28.640625 9.425781 -28.703125 Z M 9.609375 -29.003906 L 9.789062 -29.492188 C 9.730469 -29.429688 9.730469 -29.308594 9.730469 -29.25 C 9.730469 -29.1875 9.667969 -29.066406 9.609375 -29.003906 Z M 9.609375 -29.003906 "/></g></g></g><g fill="#dc3c4d" fill-opacity="0.302"><g transform="translate(106.012584, 86.05366)"><g><path d="M 0.304688 -5.230469 C 1.09375 -5.230469 2.128906 -6.082031 2.675781 -6.566406 C 4.195312 -7.964844 5.535156 -9.425781 6.933594 -11.066406 C 7.113281 -11.25 7.359375 -11.492188 7.539062 -11.734375 C 7.722656 -11.980469 8.027344 -12.160156 8.453125 -12.34375 C 8.027344 -10.703125 7.660156 -9.121094 7.660156 -7.480469 C 7.660156 -6.324219 8.148438 -5.714844 9.183594 -5.714844 C 9.425781 -5.714844 9.609375 -5.714844 9.730469 -5.777344 C 12.28125 -6.203125 16.601562 -10.277344 18.363281 -12.039062 C 18.425781 -12.101562 18.546875 -12.222656 18.605469 -12.28125 C 18.667969 -12.34375 18.667969 -12.40625 18.730469 -12.464844 C 18.851562 -12.890625 18.789062 -13.195312 18.484375 -13.378906 C 18.363281 -13.5 18.242188 -13.558594 18.058594 -13.558594 C 18 -13.558594 17.9375 -13.5 17.757812 -13.4375 C 17.574219 -13.316406 17.390625 -13.195312 17.269531 -13.074219 C 17.085938 -12.890625 16.90625 -12.769531 16.722656 -12.585938 C 16.175781 -12.160156 15.6875 -11.734375 15.261719 -11.308594 C 14.777344 -10.882812 14.289062 -10.398438 13.742188 -9.972656 C 13.011719 -9.304688 12.222656 -8.816406 11.492188 -8.332031 C 10.945312 -8.027344 10.398438 -7.785156 9.851562 -7.539062 C 9.789062 -7.480469 9.730469 -7.480469 9.609375 -7.480469 C 9.363281 -7.480469 9.242188 -7.660156 9.242188 -8.027344 C 9.242188 -10.640625 11.128906 -15.082031 12.28125 -17.390625 C 12.40625 -17.695312 12.527344 -17.9375 12.707031 -18.242188 C 12.832031 -18.484375 12.953125 -18.730469 13.074219 -19.03125 C 13.257812 -19.582031 13.195312 -20.003906 12.769531 -20.25 C 12.585938 -20.308594 12.464844 -20.371094 12.40625 -20.371094 C 12.222656 -20.371094 11.980469 -20.25 11.675781 -19.945312 C 11.492188 -19.761719 11.371094 -19.519531 11.25 -19.335938 C 11.066406 -19.09375 10.945312 -18.851562 10.761719 -18.667969 C 10.398438 -18.179688 10.035156 -17.695312 9.730469 -17.207031 C 9.363281 -16.722656 9 -16.234375 8.632812 -15.808594 C 8.390625 -15.507812 8.210938 -15.324219 8.085938 -15.324219 C 8.027344 -15.324219 7.84375 -15.445312 7.539062 -15.628906 C 6.933594 -16.113281 6.324219 -16.355469 5.714844 -16.355469 C 5.046875 -16.355469 4.378906 -16.113281 3.710938 -15.566406 C 3.285156 -15.261719 2.980469 -15.019531 2.796875 -14.777344 C 0.972656 -12.953125 -1.035156 -9.363281 -1.035156 -6.6875 C -0.972656 -5.714844 -0.488281 -5.230469 0.304688 -5.230469 Z M 0.851562 -7.417969 C 0.851562 -7.480469 0.851562 -7.480469 0.789062 -7.480469 L 0.730469 -7.539062 C 1.214844 -10.15625 2.433594 -12.34375 4.316406 -13.984375 C 4.621094 -14.289062 5.351562 -14.714844 5.777344 -14.714844 C 6.082031 -14.714844 6.324219 -14.59375 6.628906 -14.410156 C 6.933594 -14.230469 6.992188 -13.925781 6.871094 -13.558594 C 6.808594 -13.378906 6.6875 -13.316406 6.628906 -13.257812 C 4.984375 -11.25 3.34375 -9.242188 1.398438 -7.601562 C 1.277344 -7.480469 1.09375 -7.417969 0.851562 -7.417969 Z M 0.851562 -7.417969 "/></g></g></g><g fill="#dc3c4d" fill-opacity="0.302"><g transform="translate(121.761541, 86.05366)"><g><path d="M -0.304688 -0.609375 C -0.0625 -0.609375 0.121094 -0.667969 0.304688 -0.789062 C 0.667969 -1.09375 0.972656 -1.398438 1.15625 -1.824219 C 1.335938 -2.1875 1.519531 -2.554688 1.703125 -2.917969 C 3.585938 -6.75 5.898438 -10.398438 9.058594 -13.257812 C 9.183594 -13.378906 9.304688 -13.4375 9.484375 -13.4375 C 9.667969 -13.4375 9.851562 -13.257812 9.910156 -12.953125 C 9.972656 -12.34375 10.09375 -11.734375 10.15625 -11.1875 C 10.214844 -10.582031 10.277344 -9.972656 10.335938 -9.363281 C 10.398438 -8.632812 10.582031 -7.90625 11.007812 -7.113281 C 11.492188 -6.261719 12.160156 -5.835938 12.953125 -5.835938 C 13.011719 -5.835938 13.132812 -5.835938 13.257812 -5.898438 C 13.316406 -5.898438 13.4375 -5.898438 13.5 -5.898438 C 14.410156 -6.082031 15.203125 -6.507812 15.929688 -7.175781 C 16.601562 -7.785156 20.1875 -11.007812 20.855469 -11.675781 C 21.101562 -11.917969 21.28125 -12.222656 21.40625 -12.527344 C 21.527344 -12.832031 21.464844 -13.132812 21.160156 -13.378906 C 21.039062 -13.5 20.917969 -13.558594 20.734375 -13.558594 C 20.554688 -13.558594 20.429688 -13.5 20.308594 -13.378906 C 20.1875 -13.316406 20.066406 -13.132812 19.882812 -12.953125 C 19.703125 -12.769531 19.277344 -12.34375 18.605469 -11.796875 C 18.058594 -11.308594 17.511719 -10.824219 17.027344 -10.335938 C 16.480469 -9.789062 15.992188 -9.304688 15.445312 -8.816406 C 14.777344 -8.269531 14.167969 -7.785156 13.4375 -7.539062 C 13.378906 -7.539062 13.316406 -7.539062 13.316406 -7.539062 C 13.257812 -7.480469 13.195312 -7.480469 13.132812 -7.480469 C 12.769531 -7.480469 12.527344 -7.660156 12.40625 -7.964844 C 12.101562 -8.511719 11.917969 -9.121094 11.859375 -9.851562 C 11.796875 -10.335938 11.734375 -10.824219 11.734375 -11.308594 C 11.675781 -11.796875 11.613281 -12.28125 11.554688 -12.832031 C 11.371094 -13.863281 11.1875 -15.324219 9.789062 -15.324219 C 7.417969 -15.324219 2.738281 -8.332031 1.703125 -6.261719 C 1.519531 -6.6875 1.460938 -7.054688 1.640625 -7.417969 C 1.761719 -7.785156 1.886719 -8.148438 2.007812 -8.511719 C 2.613281 -10.035156 3.222656 -11.613281 3.832031 -13.195312 C 4.378906 -14.714844 4.984375 -16.296875 5.59375 -17.816406 L 5.960938 -18.546875 C 6.140625 -18.972656 6.082031 -19.335938 5.65625 -19.582031 C 5.472656 -19.640625 5.351562 -19.703125 5.289062 -19.703125 C 4.621094 -19.703125 4.074219 -18.058594 3.710938 -17.511719 C 3.160156 -15.992188 2.554688 -14.472656 2.007812 -12.953125 C 1.460938 -11.433594 0.851562 -9.910156 0.304688 -8.390625 C -0.363281 -6.386719 -0.972656 -4.378906 -1.214844 -2.25 C -1.214844 -1.886719 -1.214844 -1.640625 -1.15625 -1.460938 C -1.09375 -0.914062 -0.789062 -0.609375 -0.304688 -0.609375 Z M -0.304688 -0.609375 "/></g></g></g><g fill="#dc3c4d" fill-opacity="0.302"><g transform="translate(140.185997, 86.05366)"><g><path d="M -0.425781 4.863281 C 2.25 4.863281 4.074219 -0.121094 4.257812 -2.675781 C 4.378906 -3.464844 4.804688 -4.136719 5.472656 -4.621094 L 10.519531 -8.210938 C 12.039062 -9.363281 13.558594 -10.398438 15.203125 -11.554688 C 15.628906 -11.859375 15.992188 -12.160156 16.175781 -12.464844 C 16.480469 -12.769531 16.417969 -13.074219 16.054688 -13.378906 C 15.929688 -13.5 15.808594 -13.558594 15.628906 -13.558594 C 15.445312 -13.558594 15.261719 -13.5 15.082031 -13.378906 C 14.898438 -13.195312 14.714844 -13.074219 14.53125 -13.011719 L 5.714844 -6.808594 C 5.472656 -6.628906 5.167969 -6.445312 4.804688 -6.261719 C 4.621094 -6.566406 4.5 -6.75 4.5 -6.808594 C 4.316406 -9 3.953125 -11.128906 3.527344 -13.316406 C 3.464844 -13.621094 3.40625 -13.984375 3.40625 -14.289062 C 3.40625 -14.59375 3.40625 -14.957031 3.464844 -15.261719 C 3.648438 -17.511719 5.59375 -19.398438 7.84375 -19.398438 C 8.027344 -19.398438 8.148438 -19.398438 8.210938 -19.457031 C 8.632812 -19.640625 8.757812 -20.128906 8.453125 -20.429688 C 7.964844 -20.917969 7.660156 -20.917969 6.992188 -20.917969 C 6.324219 -20.917969 5.714844 -20.734375 5.109375 -20.371094 C 2.980469 -18.851562 1.703125 -16.90625 1.886719 -14.167969 C 1.945312 -13.378906 2.007812 -12.585938 2.1875 -11.796875 C 2.613281 -9.910156 2.859375 -8.210938 2.917969 -6.324219 C 2.917969 -5.167969 2.738281 -4.4375 1.824219 -3.710938 C 0.363281 -2.738281 -2.066406 0.304688 -2.371094 1.945312 C -2.554688 2.980469 -2.371094 3.890625 -1.398438 4.5625 C -1.09375 4.742188 -0.730469 4.863281 -0.425781 4.863281 Z M -0.304688 3.160156 C -0.488281 3.160156 -0.546875 3.101562 -0.609375 2.980469 C -0.730469 2.859375 -0.789062 2.675781 -0.789062 2.492188 C -0.851562 2.371094 -0.851562 2.25 -0.789062 2.066406 C -0.183594 0.546875 0.851562 -0.730469 2.25 -1.761719 C 2.1875 0.183594 1.277344 2.066406 0.121094 2.980469 C 0 3.101562 -0.121094 3.160156 -0.304688 3.160156 Z M -0.304688 3.160156 "/></g></g></g><g fill="#dc3c4d" fill-opacity="0.302"><g transform="translate(153.441884, 86.05366)"><g><path d="M 1.15625 1.945312 C 1.335938 1.945312 1.582031 1.824219 1.886719 1.640625 C 2.3125 1.335938 2.613281 0.914062 2.859375 0.363281 C 3.34375 -0.488281 3.832031 -1.335938 4.257812 -2.25 C 5.960938 -5.777344 8.269531 -10.582031 10.945312 -13.558594 C 11.128906 -13.742188 11.371094 -13.984375 11.675781 -14.167969 C 11.734375 -14.230469 11.796875 -14.230469 11.859375 -14.230469 C 12.039062 -14.230469 12.101562 -14.167969 12.101562 -13.984375 C 12.160156 -13.683594 12.160156 -13.4375 12.160156 -13.195312 C 12.160156 -12.953125 12.160156 -12.707031 12.160156 -12.40625 C 12.101562 -11.128906 12.101562 -9.851562 12.34375 -8.632812 C 12.648438 -7.175781 13.4375 -6.445312 14.65625 -6.445312 C 16.234375 -6.445312 22.804688 -10.882812 23.289062 -12.648438 C 23.351562 -12.953125 23.230469 -13.195312 22.984375 -13.378906 C 22.925781 -13.4375 22.863281 -13.4375 22.804688 -13.5 C 22.742188 -13.558594 22.621094 -13.558594 22.558594 -13.558594 C 22.4375 -13.558594 22.316406 -13.5 22.253906 -13.4375 C 22.011719 -13.257812 21.769531 -13.011719 21.585938 -12.769531 C 20.429688 -11.613281 16.90625 -8.9375 15.445312 -8.269531 C 15.203125 -8.148438 14.957031 -8.085938 14.714844 -8.085938 C 14.289062 -8.085938 13.984375 -8.453125 13.863281 -9.121094 C 13.804688 -9.363281 13.742188 -9.609375 13.742188 -9.910156 C 13.742188 -10.15625 13.742188 -10.398438 13.742188 -10.703125 C 13.683594 -11.1875 13.683594 -11.675781 13.742188 -12.160156 C 13.742188 -12.648438 13.742188 -13.132812 13.742188 -13.683594 C 13.742188 -13.925781 13.742188 -14.167969 13.804688 -14.472656 C 13.804688 -14.714844 13.742188 -14.957031 13.683594 -15.261719 C 13.558594 -16.054688 13.132812 -16.480469 12.40625 -16.480469 C 12.039062 -16.480469 11.734375 -16.355469 11.492188 -16.175781 C 8.332031 -13.984375 4.5625 -6.628906 2.917969 -3.160156 C 2.738281 -2.859375 2.613281 -2.554688 2.492188 -2.25 C 2.371094 -1.945312 2.128906 -1.640625 1.703125 -1.335938 C 1.640625 -1.761719 1.582031 -1.886719 1.582031 -2.128906 C 1.582031 -6.386719 3.464844 -16.175781 5.835938 -19.945312 C 9 -24.808594 11.433594 -29.796875 13.804688 -35.085938 C 13.925781 -35.390625 14.046875 -35.695312 14.167969 -36 C 14.289062 -36.300781 14.410156 -36.605469 14.472656 -36.910156 C 14.53125 -37.09375 14.59375 -37.214844 14.59375 -37.398438 C 14.59375 -37.578125 14.59375 -37.699219 14.59375 -37.882812 C 14.59375 -38.1875 14.410156 -38.371094 13.984375 -38.371094 C 13.925781 -38.371094 13.863281 -38.371094 13.804688 -38.308594 C 13.5 -38.125 13.195312 -37.945312 13.011719 -37.761719 C 8.878906 -32.351562 5.65625 -25.476562 3.527344 -19.09375 C 3.285156 -18.425781 3.039062 -17.816406 2.859375 -17.207031 C 2.613281 -16.601562 2.3125 -15.992188 1.886719 -15.445312 C 1.824219 -15.261719 1.703125 -15.140625 1.640625 -14.957031 C 1.519531 -14.777344 1.519531 -14.53125 1.582031 -14.351562 C 1.761719 -13.925781 1.824219 -13.5 1.761719 -13.132812 C 1.640625 -12.769531 1.519531 -12.40625 1.460938 -12.039062 C 1.335938 -11.25 1.214844 -10.457031 1.035156 -9.730469 C 0.851562 -8.9375 0.667969 -8.148438 0.546875 -7.359375 C 0.121094 -4.984375 -0.183594 -2.796875 0 -0.425781 C 0 0.121094 0.0625 0.667969 0.183594 1.15625 C 0.363281 1.703125 0.730469 1.945312 1.15625 1.945312 Z M 8.511719 -27.242188 C 8.816406 -27.546875 8.878906 -27.851562 8.9375 -28.277344 C 9 -27.972656 8.878906 -27.667969 8.574219 -27.300781 L 8.574219 -27.242188 Z M 9.058594 -28.398438 C 9.242188 -28.578125 9.363281 -28.640625 9.425781 -28.703125 Z M 9.609375 -29.003906 L 9.789062 -29.492188 C 9.730469 -29.429688 9.730469 -29.308594 9.730469 -29.25 C 9.730469 -29.1875 9.667969 -29.066406 9.609375 -29.003906 Z M 9.609375 -29.003906 "/></g></g></g><g fill="#dc3c4d" fill-opacity="0.302"><g transform="translate(173.690549, 86.05366)"><g/></g></g><g fill="#dc3c4d" fill-opacity="0.302"><g transform="translate(196.797131, 86.05366)"><g><path d="M 1.15625 5.65625 C 1.460938 5.65625 1.761719 5.535156 2.007812 5.289062 C 2.3125 5.046875 2.554688 4.804688 2.738281 4.5 C 2.917969 4.195312 3.101562 3.832031 3.285156 3.527344 C 3.832031 2.613281 4.316406 1.640625 4.804688 0.667969 C 5.289062 -0.304688 5.777344 -1.277344 6.261719 -2.25 C 7.417969 -4.4375 9.789062 -9.121094 11.675781 -12.527344 C 12.832031 -14.53125 14.046875 -16.601562 15.324219 -18.730469 C 17.9375 -22.925781 20.613281 -26.753906 23.289062 -29.550781 C 24.628906 -30.949219 25.902344 -31.925781 27.058594 -32.53125 C 27.484375 -32.773438 27.851562 -32.898438 28.152344 -32.898438 C 28.761719 -32.898438 29.125 -32.410156 29.308594 -31.4375 C 29.492188 -30.648438 29.492188 -29.796875 29.371094 -28.824219 C 28.398438 -21.953125 25.054688 -14.167969 19.03125 -10.277344 C 18.363281 -9.851562 17.695312 -9.425781 16.90625 -9.242188 C 16.113281 -9.242188 15.566406 -9.425781 15.566406 -10.335938 C 15.628906 -11.734375 16.054688 -12.953125 17.269531 -13.742188 C 17.511719 -13.925781 17.757812 -14.046875 18 -14.230469 C 18.242188 -14.410156 18.484375 -14.59375 18.730469 -14.777344 C 19.03125 -15.019531 19.09375 -15.324219 18.851562 -15.6875 C 18.789062 -15.871094 18.546875 -15.992188 18.242188 -15.992188 L 18 -15.992188 C 17.9375 -15.992188 17.878906 -15.992188 17.816406 -15.929688 C 16.84375 -15.445312 15.929688 -14.957031 15.261719 -14.046875 C 14.167969 -12.769531 13.804688 -11.308594 14.105469 -9.609375 C 14.289062 -8.332031 15.082031 -7.660156 16.480469 -7.660156 C 19.519531 -7.660156 23.652344 -11.796875 25.355469 -14.167969 C 28.457031 -18.484375 30.160156 -23.167969 30.890625 -28.335938 C 30.949219 -28.761719 31.011719 -29.1875 31.011719 -29.613281 C 30.949219 -30.039062 30.949219 -30.464844 30.949219 -30.890625 C 31.011719 -31.558594 30.769531 -32.167969 30.527344 -32.835938 C 30.039062 -33.929688 29.25 -34.476562 28.214844 -34.476562 C 28.03125 -34.476562 27.726562 -34.417969 27.300781 -34.355469 C 24.808594 -33.6875 21.828125 -30.585938 18.730469 -26.511719 C 17.207031 -24.445312 15.6875 -22.195312 14.167969 -19.761719 C 11.1875 -14.835938 8.453125 -9.972656 6.261719 -5.714844 C 5.167969 -3.585938 4.257812 -1.761719 3.585938 -0.363281 C 3.160156 0.425781 2.796875 1.15625 2.371094 1.886719 C 2.3125 2.066406 2.1875 2.1875 2.066406 2.1875 C 2.007812 2.1875 1.945312 2.1875 1.886719 2.128906 C 1.824219 2.066406 1.761719 1.945312 1.761719 1.640625 C 1.761719 1.335938 1.761719 1.15625 1.824219 1.035156 C 2.371094 -4.316406 3.710938 -10.035156 5.410156 -15.628906 C 7.113281 -21.160156 9.183594 -26.632812 11.308594 -31.5 C 11.554688 -32.046875 11.796875 -32.652344 12.039062 -33.199219 C 12.28125 -33.75 12.527344 -34.296875 12.707031 -34.84375 C 12.832031 -35.148438 12.890625 -35.449219 12.890625 -35.753906 C 12.890625 -36.179688 12.585938 -36.363281 12.160156 -36.363281 C 12.039062 -36.363281 11.917969 -36.300781 11.859375 -36.242188 C 11.613281 -35.816406 11.371094 -35.449219 11.128906 -35.023438 C 8.632812 -29.429688 6.019531 -22.984375 4.011719 -16.417969 C 2.007812 -9.851562 0.488281 -3.101562 0 3.160156 C 0.0625 3.34375 0.0625 3.585938 0.0625 3.890625 C 0 4.195312 0.0625 4.4375 0.121094 4.742188 C 0.304688 5.351562 0.667969 5.65625 1.15625 5.65625 Z M 1.15625 5.65625 "/></g></g></g><g fill="#dc3c4d" fill-opacity="0.502"><g transform="translate(13.096521, 84.948465)"><g><path d="M 13.742188 15.929688 L 14.167969 15.929688 C 18 15.140625 21.101562 7.359375 22.253906 3.527344 C 22.679688 2.3125 23.230469 1.460938 24.140625 0.546875 C 27.789062 -3.160156 31.4375 -6.808594 35.328125 -10.214844 C 35.816406 -10.640625 36.242188 -11.007812 36.667969 -11.433594 L 37.214844 -11.980469 C 37.519531 -12.40625 37.519531 -12.769531 37.214844 -13.074219 C 37.03125 -13.195312 36.847656 -13.257812 36.667969 -13.257812 C 36.484375 -13.257812 36.300781 -13.195312 36.121094 -13.074219 C 36 -13.011719 35.875 -12.890625 35.816406 -12.832031 C 35.695312 -12.707031 35.574219 -12.585938 35.511719 -12.527344 C 31.863281 -9.304688 28.398438 -6.019531 24.992188 -2.554688 C 24.808594 -2.371094 24.628906 -2.128906 24.324219 -2.128906 L 24.140625 -2.128906 C 23.957031 -2.433594 24.019531 -2.796875 24.203125 -3.101562 C 25.722656 -9.363281 26.878906 -15.445312 28.09375 -21.769531 C 28.152344 -22.195312 28.214844 -22.4375 28.214844 -22.742188 C 28.214844 -23.105469 28.09375 -23.351562 27.910156 -23.410156 C 27.667969 -23.472656 27.484375 -23.53125 27.425781 -23.53125 C 27.300781 -23.53125 27.121094 -23.472656 26.9375 -23.351562 C 26.511719 -22.925781 26.148438 -22.5 25.78125 -22.011719 C 24.203125 -20.1875 22.621094 -18.363281 21.101562 -16.480469 C 19.519531 -14.59375 17.9375 -12.769531 16.355469 -10.945312 C 15.445312 -9.789062 12.34375 -6.628906 10.398438 -4.804688 C 8.332031 -2.859375 5.230469 -0.488281 3.527344 -0.488281 C 2.554688 -0.488281 1.945312 -1.277344 1.703125 -2.859375 C 1.582031 -3.285156 1.582031 -3.832031 1.640625 -4.4375 C 1.703125 -5.109375 1.761719 -5.714844 1.945312 -6.386719 C 3.890625 -14.59375 8.695312 -24.808594 15.382812 -30.039062 C 16.78125 -31.195312 18.730469 -32.289062 20.613281 -32.289062 C 21.828125 -32.289062 22.5 -31.5 22.621094 -29.855469 C 22.621094 -27.972656 22.195312 -26.390625 21.527344 -24.628906 C 20.613281 -22.5 19.703125 -20.554688 18.546875 -18.605469 C 18.484375 -18.425781 18.363281 -18.242188 18.242188 -18.058594 C 18.121094 -17.878906 18 -17.757812 17.9375 -17.574219 C 17.878906 -17.332031 17.9375 -17.148438 18.121094 -17.027344 C 18.179688 -16.964844 18.363281 -16.964844 18.546875 -16.964844 L 18.667969 -16.964844 C 20.429688 -17.757812 23.53125 -25.355469 24.019531 -27.910156 C 24.140625 -28.457031 24.203125 -29.066406 24.203125 -29.675781 C 24.203125 -30.28125 24.078125 -30.890625 23.898438 -31.4375 C 23.410156 -33.078125 22.316406 -33.871094 20.675781 -33.871094 C 16.539062 -33.871094 12.464844 -29.976562 9.910156 -26.753906 C 5.109375 -20.855469 2.1875 -14.105469 0.425781 -6.75 C 0.183594 -5.59375 -0.0625 -4.5625 0 -3.40625 C 0.183594 -1.214844 1.15625 1.15625 3.40625 1.15625 C 3.464844 1.15625 3.585938 1.15625 3.648438 1.15625 C 3.710938 1.09375 3.832031 1.09375 3.890625 1.09375 C 7.964844 0.609375 15.6875 -7.539062 18.304688 -10.703125 L 24.503906 -18 C 24.6875 -18.179688 24.808594 -18.425781 24.992188 -18.667969 C 25.113281 -18.851562 25.355469 -18.972656 25.722656 -18.972656 C 25.902344 -18.546875 25.78125 -18.058594 25.722656 -17.632812 C 24.566406 -11.796875 23.351562 -6.140625 21.828125 -0.363281 C 21.585938 0.546875 21.101562 1.398438 20.429688 2.1875 C 18.242188 4.5 12.464844 10.882812 12.160156 13.984375 C 12.039062 15.261719 12.585938 15.929688 13.742188 15.929688 Z M 14.351562 14.167969 C 14.230469 14.230469 14.105469 14.230469 13.984375 14.105469 C 13.925781 14.046875 13.863281 13.925781 13.863281 13.804688 C 13.925781 12.890625 14.410156 12.160156 14.898438 11.492188 C 15.382812 10.824219 15.871094 10.15625 16.417969 9.484375 C 16.964844 8.816406 17.453125 8.085938 18 7.417969 C 18.179688 7.113281 18.425781 6.808594 18.667969 6.628906 C 18.910156 6.386719 19.09375 6.082031 19.214844 5.777344 C 19.519531 6.082031 19.519531 6.386719 19.335938 6.808594 C 18.546875 8.9375 17.574219 10.945312 16.175781 12.707031 C 15.628906 13.378906 15.082031 13.863281 14.351562 14.167969 Z M 14.351562 14.167969 "/></g></g></g><g fill="#dc3c4d" fill-opacity="0.502"><g transform="translate(47.452362, 84.948465)"><g><path d="M 2.859375 -2.554688 C 7.054688 -2.554688 13.4375 -8.757812 16.355469 -11.859375 C 16.601562 -12.101562 16.78125 -12.28125 16.84375 -12.464844 C 17.027344 -12.769531 16.964844 -13.074219 16.660156 -13.378906 C 16.539062 -13.5 16.417969 -13.558594 16.234375 -13.558594 C 16.113281 -13.558594 15.929688 -13.5 15.75 -13.378906 C 15.566406 -13.195312 15.382812 -13.011719 15.203125 -12.832031 C 15.019531 -12.648438 14.777344 -12.464844 14.59375 -12.28125 C 13.863281 -11.613281 13.132812 -10.945312 12.464844 -10.277344 C 11.734375 -9.609375 11.007812 -8.878906 10.277344 -8.210938 C 8.511719 -6.566406 5.714844 -4.621094 3.285156 -4.136719 C 2.128906 -4.136719 1.460938 -4.136719 1.214844 -5.535156 C 0.914062 -6.324219 0.851562 -6.992188 1.035156 -7.660156 C 1.09375 -7.964844 1.277344 -8.148438 1.519531 -8.210938 C 4.4375 -8.511719 8.269531 -12.101562 8.757812 -15.082031 C 8.9375 -16.480469 8.148438 -17.332031 6.933594 -17.332031 C 6.871094 -17.332031 6.75 -17.332031 6.6875 -17.332031 C 6.628906 -17.269531 6.507812 -17.269531 6.445312 -17.269531 C 3.222656 -16.78125 0.851562 -12.527344 -0.183594 -9.667969 C -0.425781 -8.757812 -0.667969 -7.90625 -0.609375 -6.871094 C -0.667969 -6.203125 -0.488281 -5.472656 -0.242188 -4.804688 C 0.183594 -3.285156 1.214844 -2.554688 2.859375 -2.554688 Z M 2.3125 -10.035156 C 2.25 -9.972656 2.128906 -10.035156 1.945312 -10.09375 C 1.886719 -10.09375 1.824219 -10.214844 1.824219 -10.398438 C 2.492188 -12.28125 4.5625 -15.324219 6.566406 -15.628906 C 6.871094 -15.6875 7.054688 -15.566406 7.113281 -15.140625 C 7.113281 -13.195312 3.890625 -10.882812 2.3125 -10.035156 Z M 2.3125 -10.035156 "/></g></g></g><g fill="#dc3c4d" fill-opacity="0.502"><g transform="translate(61.316312, 84.948465)"><g><path d="M 2.859375 -2.554688 C 7.054688 -2.554688 13.4375 -8.757812 16.355469 -11.859375 C 16.601562 -12.101562 16.78125 -12.28125 16.84375 -12.464844 C 17.027344 -12.769531 16.964844 -13.074219 16.660156 -13.378906 C 16.539062 -13.5 16.417969 -13.558594 16.234375 -13.558594 C 16.113281 -13.558594 15.929688 -13.5 15.75 -13.378906 C 15.566406 -13.195312 15.382812 -13.011719 15.203125 -12.832031 C 15.019531 -12.648438 14.777344 -12.464844 14.59375 -12.28125 C 13.863281 -11.613281 13.132812 -10.945312 12.464844 -10.277344 C 11.734375 -9.609375 11.007812 -8.878906 10.277344 -8.210938 C 8.511719 -6.566406 5.714844 -4.621094 3.285156 -4.136719 C 2.128906 -4.136719 1.460938 -4.136719 1.214844 -5.535156 C 0.914062 -6.324219 0.851562 -6.992188 1.035156 -7.660156 C 1.09375 -7.964844 1.277344 -8.148438 1.519531 -8.210938 C 4.4375 -8.511719 8.269531 -12.101562 8.757812 -15.082031 C 8.9375 -16.480469 8.148438 -17.332031 6.933594 -17.332031 C 6.871094 -17.332031 6.75 -17.332031 6.6875 -17.332031 C 6.628906 -17.269531 6.507812 -17.269531 6.445312 -17.269531 C 3.222656 -16.78125 0.851562 -12.527344 -0.183594 -9.667969 C -0.425781 -8.757812 -0.667969 -7.90625 -0.609375 -6.871094 C -0.667969 -6.203125 -0.488281 -5.472656 -0.242188 -4.804688 C 0.183594 -3.285156 1.214844 -2.554688 2.859375 -2.554688 Z M 2.3125 -10.035156 C 2.25 -9.972656 2.128906 -10.035156 1.945312 -10.09375 C 1.886719 -10.09375 1.824219 -10.214844 1.824219 -10.398438 C 2.492188 -12.28125 4.5625 -15.324219 6.566406 -15.628906 C 6.871094 -15.6875 7.054688 -15.566406 7.113281 -15.140625 C 7.113281 -13.195312 3.890625 -10.882812 2.3125 -10.035156 Z M 2.3125 -10.035156 "/></g></g></g><g fill="#dc3c4d" fill-opacity="0.502"><g transform="translate(75.180261, 84.948465)"><g><path d="M 1.09375 4.316406 C 2.066406 4.316406 3.222656 3.464844 3.769531 2.738281 C 5.714844 0.488281 7.90625 -2.492188 9.910156 -5.230469 C 11.613281 -7.539062 13.863281 -10.640625 15.082031 -12.101562 C 15.203125 -12.222656 15.261719 -12.34375 15.261719 -12.464844 C 15.445312 -12.832031 15.382812 -13.132812 15.082031 -13.378906 C 14.898438 -13.4375 14.777344 -13.5 14.65625 -13.5 C 14.59375 -13.5 14.59375 -13.5 14.53125 -13.5 C 14.472656 -13.4375 14.472656 -13.4375 14.410156 -13.4375 C 14.105469 -13.316406 13.863281 -13.132812 13.683594 -12.953125 C 13.5 -12.707031 13.257812 -12.464844 13.074219 -12.222656 C 11.308594 -10.457031 5.960938 -2.433594 3.40625 0.789062 C 3.101562 1.15625 2.796875 1.519531 2.492188 1.886719 C 2.1875 2.1875 1.824219 2.433594 1.277344 2.492188 C 0.363281 1.761719 0.667969 0.667969 0.730469 -0.242188 C 0.914062 -2.371094 1.15625 -4.316406 1.640625 -6.324219 C 2.433594 -9.851562 5.59375 -19.519531 6.992188 -22.621094 C 7.296875 -23.410156 7.90625 -23.777344 8.757812 -23.835938 L 21.828125 -24.992188 C 22.132812 -25.054688 22.378906 -25.054688 22.621094 -25.113281 C 22.863281 -25.113281 23.105469 -25.175781 23.410156 -25.234375 C 23.652344 -25.296875 23.777344 -25.539062 23.777344 -25.84375 C 23.714844 -26.269531 23.53125 -26.453125 23.289062 -26.453125 L 21.101562 -26.453125 C 19.398438 -26.269531 17.574219 -26.085938 15.566406 -25.964844 C 13.558594 -25.78125 11.734375 -25.601562 10.035156 -25.417969 C 9.972656 -25.417969 9.851562 -25.417969 9.730469 -25.417969 C 9.609375 -25.355469 9.484375 -25.355469 9.363281 -25.355469 C 9.121094 -25.355469 8.878906 -25.417969 8.574219 -25.476562 C 8.574219 -25.78125 8.632812 -26.085938 8.757812 -26.328125 C 8.816406 -26.511719 8.9375 -26.753906 9 -26.9375 C 9.789062 -28.578125 10.582031 -30.160156 11.25 -31.800781 C 11.554688 -32.351562 11.613281 -32.835938 11.554688 -33.140625 C 11.433594 -33.445312 11.25 -33.566406 11.007812 -33.566406 C 10.582031 -33.566406 10.15625 -33.199219 9.730469 -32.472656 C 9.425781 -31.984375 9.121094 -31.5 8.878906 -31.011719 C 8.574219 -30.527344 8.332031 -30.039062 8.027344 -29.550781 L 6.386719 -25.902344 C 6.082031 -25.234375 5.59375 -24.929688 4.863281 -24.871094 C 3.832031 -24.75 2.738281 -24.628906 1.640625 -24.503906 C 0.546875 -24.382812 -0.546875 -24.261719 -1.640625 -24.078125 C -1.945312 -24.019531 -2.25 -23.957031 -2.554688 -23.898438 C -2.796875 -23.835938 -3.039062 -23.714844 -3.34375 -23.652344 C -3.648438 -23.59375 -3.710938 -23.351562 -3.648438 -22.984375 C -3.585938 -22.804688 -3.464844 -22.679688 -3.222656 -22.621094 C -3.039062 -22.558594 -2.859375 -22.558594 -2.554688 -22.558594 C -2.066406 -22.558594 -1.519531 -22.679688 -1.035156 -22.742188 C -0.242188 -22.804688 0.609375 -22.925781 1.460938 -23.046875 C 2.25 -23.167969 3.101562 -23.289062 3.890625 -23.351562 L 4.378906 -23.351562 C 5.109375 -23.351562 5.167969 -23.046875 4.863281 -22.132812 C 4.4375 -21.101562 4.136719 -20.128906 3.710938 -18.972656 C 1.703125 -13.5 -0.851562 -5.167969 -0.851562 0.730469 C -0.851562 2.128906 -0.488281 4.316406 1.09375 4.316406 Z M 1.09375 4.316406 "/></g></g></g><g fill="#dc3c4d" fill-opacity="0.502"><g transform="translate(87.40243, 84.948465)"><g><path d="M 1.15625 1.945312 C 1.335938 1.945312 1.582031 1.824219 1.886719 1.640625 C 2.3125 1.335938 2.613281 0.914062 2.859375 0.363281 C 3.34375 -0.488281 3.832031 -1.335938 4.257812 -2.25 C 5.960938 -5.777344 8.269531 -10.582031 10.945312 -13.558594 C 11.128906 -13.742188 11.371094 -13.984375 11.675781 -14.167969 C 11.734375 -14.230469 11.796875 -14.230469 11.859375 -14.230469 C 12.039062 -14.230469 12.101562 -14.167969 12.101562 -13.984375 C 12.160156 -13.683594 12.160156 -13.4375 12.160156 -13.195312 C 12.160156 -12.953125 12.160156 -12.707031 12.160156 -12.40625 C 12.101562 -11.128906 12.101562 -9.851562 12.34375 -8.632812 C 12.648438 -7.175781 13.4375 -6.445312 14.65625 -6.445312 C 16.234375 -6.445312 22.804688 -10.882812 23.289062 -12.648438 C 23.351562 -12.953125 23.230469 -13.195312 22.984375 -13.378906 C 22.925781 -13.4375 22.863281 -13.4375 22.804688 -13.5 C 22.742188 -13.558594 22.621094 -13.558594 22.558594 -13.558594 C 22.4375 -13.558594 22.316406 -13.5 22.253906 -13.4375 C 22.011719 -13.257812 21.769531 -13.011719 21.585938 -12.769531 C 20.429688 -11.613281 16.90625 -8.9375 15.445312 -8.269531 C 15.203125 -8.148438 14.957031 -8.085938 14.714844 -8.085938 C 14.289062 -8.085938 13.984375 -8.453125 13.863281 -9.121094 C 13.804688 -9.363281 13.742188 -9.609375 13.742188 -9.910156 C 13.742188 -10.15625 13.742188 -10.398438 13.742188 -10.703125 C 13.683594 -11.1875 13.683594 -11.675781 13.742188 -12.160156 C 13.742188 -12.648438 13.742188 -13.132812 13.742188 -13.683594 C 13.742188 -13.925781 13.742188 -14.167969 13.804688 -14.472656 C 13.804688 -14.714844 13.742188 -14.957031 13.683594 -15.261719 C 13.558594 -16.054688 13.132812 -16.480469 12.40625 -16.480469 C 12.039062 -16.480469 11.734375 -16.355469 11.492188 -16.175781 C 8.332031 -13.984375 4.5625 -6.628906 2.917969 -3.160156 C 2.738281 -2.859375 2.613281 -2.554688 2.492188 -2.25 C 2.371094 -1.945312 2.128906 -1.640625 1.703125 -1.335938 C 1.640625 -1.761719 1.582031 -1.886719 1.582031 -2.128906 C 1.582031 -6.386719 3.464844 -16.175781 5.835938 -19.945312 C 9 -24.808594 11.433594 -29.796875 13.804688 -35.085938 C 13.925781 -35.390625 14.046875 -35.695312 14.167969 -36 C 14.289062 -36.300781 14.410156 -36.605469 14.472656 -36.910156 C 14.53125 -37.09375 14.59375 -37.214844 14.59375 -37.398438 C 14.59375 -37.578125 14.59375 -37.699219 14.59375 -37.882812 C 14.59375 -38.1875 14.410156 -38.371094 13.984375 -38.371094 C 13.925781 -38.371094 13.863281 -38.371094 13.804688 -38.308594 C 13.5 -38.125 13.195312 -37.945312 13.011719 -37.761719 C 8.878906 -32.351562 5.65625 -25.476562 3.527344 -19.09375 C 3.285156 -18.425781 3.039062 -17.816406 2.859375 -17.207031 C 2.613281 -16.601562 2.3125 -15.992188 1.886719 -15.445312 C 1.824219 -15.261719 1.703125 -15.140625 1.640625 -14.957031 C 1.519531 -14.777344 1.519531 -14.53125 1.582031 -14.351562 C 1.761719 -13.925781 1.824219 -13.5 1.761719 -13.132812 C 1.640625 -12.769531 1.519531 -12.40625 1.460938 -12.039062 C 1.335938 -11.25 1.214844 -10.457031 1.035156 -9.730469 C 0.851562 -8.9375 0.667969 -8.148438 0.546875 -7.359375 C 0.121094 -4.984375 -0.183594 -2.796875 0 -0.425781 C 0 0.121094 0.0625 0.667969 0.183594 1.15625 C 0.363281 1.703125 0.730469 1.945312 1.15625 1.945312 Z M 8.511719 -27.242188 C 8.816406 -27.546875 8.878906 -27.851562 8.9375 -28.277344 C 9 -27.972656 8.878906 -27.667969 8.574219 -27.300781 L 8.574219 -27.242188 Z M 9.058594 -28.398438 C 9.242188 -28.578125 9.363281 -28.640625 9.425781 -28.703125 Z M 9.609375 -29.003906 L 9.789062 -29.492188 C 9.730469 -29.429688 9.730469 -29.308594 9.730469 -29.25 C 9.730469 -29.1875 9.667969 -29.066406 9.609375 -29.003906 Z M 9.609375 -29.003906 "/></g></g></g><g fill="#dc3c4d" fill-opacity="0.502"><g transform="translate(107.651095, 84.948465)"><g><path d="M 0.304688 -5.230469 C 1.09375 -5.230469 2.128906 -6.082031 2.675781 -6.566406 C 4.195312 -7.964844 5.535156 -9.425781 6.933594 -11.066406 C 7.113281 -11.25 7.359375 -11.492188 7.539062 -11.734375 C 7.722656 -11.980469 8.027344 -12.160156 8.453125 -12.34375 C 8.027344 -10.703125 7.660156 -9.121094 7.660156 -7.480469 C 7.660156 -6.324219 8.148438 -5.714844 9.183594 -5.714844 C 9.425781 -5.714844 9.609375 -5.714844 9.730469 -5.777344 C 12.28125 -6.203125 16.601562 -10.277344 18.363281 -12.039062 C 18.425781 -12.101562 18.546875 -12.222656 18.605469 -12.28125 C 18.667969 -12.34375 18.667969 -12.40625 18.730469 -12.464844 C 18.851562 -12.890625 18.789062 -13.195312 18.484375 -13.378906 C 18.363281 -13.5 18.242188 -13.558594 18.058594 -13.558594 C 18 -13.558594 17.9375 -13.5 17.757812 -13.4375 C 17.574219 -13.316406 17.390625 -13.195312 17.269531 -13.074219 C 17.085938 -12.890625 16.90625 -12.769531 16.722656 -12.585938 C 16.175781 -12.160156 15.6875 -11.734375 15.261719 -11.308594 C 14.777344 -10.882812 14.289062 -10.398438 13.742188 -9.972656 C 13.011719 -9.304688 12.222656 -8.816406 11.492188 -8.332031 C 10.945312 -8.027344 10.398438 -7.785156 9.851562 -7.539062 C 9.789062 -7.480469 9.730469 -7.480469 9.609375 -7.480469 C 9.363281 -7.480469 9.242188 -7.660156 9.242188 -8.027344 C 9.242188 -10.640625 11.128906 -15.082031 12.28125 -17.390625 C 12.40625 -17.695312 12.527344 -17.9375 12.707031 -18.242188 C 12.832031 -18.484375 12.953125 -18.730469 13.074219 -19.03125 C 13.257812 -19.582031 13.195312 -20.003906 12.769531 -20.25 C 12.585938 -20.308594 12.464844 -20.371094 12.40625 -20.371094 C 12.222656 -20.371094 11.980469 -20.25 11.675781 -19.945312 C 11.492188 -19.761719 11.371094 -19.519531 11.25 -19.335938 C 11.066406 -19.09375 10.945312 -18.851562 10.761719 -18.667969 C 10.398438 -18.179688 10.035156 -17.695312 9.730469 -17.207031 C 9.363281 -16.722656 9 -16.234375 8.632812 -15.808594 C 8.390625 -15.507812 8.210938 -15.324219 8.085938 -15.324219 C 8.027344 -15.324219 7.84375 -15.445312 7.539062 -15.628906 C 6.933594 -16.113281 6.324219 -16.355469 5.714844 -16.355469 C 5.046875 -16.355469 4.378906 -16.113281 3.710938 -15.566406 C 3.285156 -15.261719 2.980469 -15.019531 2.796875 -14.777344 C 0.972656 -12.953125 -1.035156 -9.363281 -1.035156 -6.6875 C -0.972656 -5.714844 -0.488281 -5.230469 0.304688 -5.230469 Z M 0.851562 -7.417969 C 0.851562 -7.480469 0.851562 -7.480469 0.789062 -7.480469 L 0.730469 -7.539062 C 1.214844 -10.15625 2.433594 -12.34375 4.316406 -13.984375 C 4.621094 -14.289062 5.351562 -14.714844 5.777344 -14.714844 C 6.082031 -14.714844 6.324219 -14.59375 6.628906 -14.410156 C 6.933594 -14.230469 6.992188 -13.925781 6.871094 -13.558594 C 6.808594 -13.378906 6.6875 -13.316406 6.628906 -13.257812 C 4.984375 -11.25 3.34375 -9.242188 1.398438 -7.601562 C 1.277344 -7.480469 1.09375 -7.417969 0.851562 -7.417969 Z M 0.851562 -7.417969 "/></g></g></g><g fill="#dc3c4d" fill-opacity="0.502"><g transform="translate(123.400052, 84.948465)"><g><path d="M -0.304688 -0.609375 C -0.0625 -0.609375 0.121094 -0.667969 0.304688 -0.789062 C 0.667969 -1.09375 0.972656 -1.398438 1.15625 -1.824219 C 1.335938 -2.1875 1.519531 -2.554688 1.703125 -2.917969 C 3.585938 -6.75 5.898438 -10.398438 9.058594 -13.257812 C 9.183594 -13.378906 9.304688 -13.4375 9.484375 -13.4375 C 9.667969 -13.4375 9.851562 -13.257812 9.910156 -12.953125 C 9.972656 -12.34375 10.09375 -11.734375 10.15625 -11.1875 C 10.214844 -10.582031 10.277344 -9.972656 10.335938 -9.363281 C 10.398438 -8.632812 10.582031 -7.90625 11.007812 -7.113281 C 11.492188 -6.261719 12.160156 -5.835938 12.953125 -5.835938 C 13.011719 -5.835938 13.132812 -5.835938 13.257812 -5.898438 C 13.316406 -5.898438 13.4375 -5.898438 13.5 -5.898438 C 14.410156 -6.082031 15.203125 -6.507812 15.929688 -7.175781 C 16.601562 -7.785156 20.1875 -11.007812 20.855469 -11.675781 C 21.101562 -11.917969 21.28125 -12.222656 21.40625 -12.527344 C 21.527344 -12.832031 21.464844 -13.132812 21.160156 -13.378906 C 21.039062 -13.5 20.917969 -13.558594 20.734375 -13.558594 C 20.554688 -13.558594 20.429688 -13.5 20.308594 -13.378906 C 20.1875 -13.316406 20.066406 -13.132812 19.882812 -12.953125 C 19.703125 -12.769531 19.277344 -12.34375 18.605469 -11.796875 C 18.058594 -11.308594 17.511719 -10.824219 17.027344 -10.335938 C 16.480469 -9.789062 15.992188 -9.304688 15.445312 -8.816406 C 14.777344 -8.269531 14.167969 -7.785156 13.4375 -7.539062 C 13.378906 -7.539062 13.316406 -7.539062 13.316406 -7.539062 C 13.257812 -7.480469 13.195312 -7.480469 13.132812 -7.480469 C 12.769531 -7.480469 12.527344 -7.660156 12.40625 -7.964844 C 12.101562 -8.511719 11.917969 -9.121094 11.859375 -9.851562 C 11.796875 -10.335938 11.734375 -10.824219 11.734375 -11.308594 C 11.675781 -11.796875 11.613281 -12.28125 11.554688 -12.832031 C 11.371094 -13.863281 11.1875 -15.324219 9.789062 -15.324219 C 7.417969 -15.324219 2.738281 -8.332031 1.703125 -6.261719 C 1.519531 -6.6875 1.460938 -7.054688 1.640625 -7.417969 C 1.761719 -7.785156 1.886719 -8.148438 2.007812 -8.511719 C 2.613281 -10.035156 3.222656 -11.613281 3.832031 -13.195312 C 4.378906 -14.714844 4.984375 -16.296875 5.59375 -17.816406 L 5.960938 -18.546875 C 6.140625 -18.972656 6.082031 -19.335938 5.65625 -19.582031 C 5.472656 -19.640625 5.351562 -19.703125 5.289062 -19.703125 C 4.621094 -19.703125 4.074219 -18.058594 3.710938 -17.511719 C 3.160156 -15.992188 2.554688 -14.472656 2.007812 -12.953125 C 1.460938 -11.433594 0.851562 -9.910156 0.304688 -8.390625 C -0.363281 -6.386719 -0.972656 -4.378906 -1.214844 -2.25 C -1.214844 -1.886719 -1.214844 -1.640625 -1.15625 -1.460938 C -1.09375 -0.914062 -0.789062 -0.609375 -0.304688 -0.609375 Z M -0.304688 -0.609375 "/></g></g></g><g fill="#dc3c4d" fill-opacity="0.502"><g transform="translate(141.824508, 84.948465)"><g><path d="M -0.425781 4.863281 C 2.25 4.863281 4.074219 -0.121094 4.257812 -2.675781 C 4.378906 -3.464844 4.804688 -4.136719 5.472656 -4.621094 L 10.519531 -8.210938 C 12.039062 -9.363281 13.558594 -10.398438 15.203125 -11.554688 C 15.628906 -11.859375 15.992188 -12.160156 16.175781 -12.464844 C 16.480469 -12.769531 16.417969 -13.074219 16.054688 -13.378906 C 15.929688 -13.5 15.808594 -13.558594 15.628906 -13.558594 C 15.445312 -13.558594 15.261719 -13.5 15.082031 -13.378906 C 14.898438 -13.195312 14.714844 -13.074219 14.53125 -13.011719 L 5.714844 -6.808594 C 5.472656 -6.628906 5.167969 -6.445312 4.804688 -6.261719 C 4.621094 -6.566406 4.5 -6.75 4.5 -6.808594 C 4.316406 -9 3.953125 -11.128906 3.527344 -13.316406 C 3.464844 -13.621094 3.40625 -13.984375 3.40625 -14.289062 C 3.40625 -14.59375 3.40625 -14.957031 3.464844 -15.261719 C 3.648438 -17.511719 5.59375 -19.398438 7.84375 -19.398438 C 8.027344 -19.398438 8.148438 -19.398438 8.210938 -19.457031 C 8.632812 -19.640625 8.757812 -20.128906 8.453125 -20.429688 C 7.964844 -20.917969 7.660156 -20.917969 6.992188 -20.917969 C 6.324219 -20.917969 5.714844 -20.734375 5.109375 -20.371094 C 2.980469 -18.851562 1.703125 -16.90625 1.886719 -14.167969 C 1.945312 -13.378906 2.007812 -12.585938 2.1875 -11.796875 C 2.613281 -9.910156 2.859375 -8.210938 2.917969 -6.324219 C 2.917969 -5.167969 2.738281 -4.4375 1.824219 -3.710938 C 0.363281 -2.738281 -2.066406 0.304688 -2.371094 1.945312 C -2.554688 2.980469 -2.371094 3.890625 -1.398438 4.5625 C -1.09375 4.742188 -0.730469 4.863281 -0.425781 4.863281 Z M -0.304688 3.160156 C -0.488281 3.160156 -0.546875 3.101562 -0.609375 2.980469 C -0.730469 2.859375 -0.789062 2.675781 -0.789062 2.492188 C -0.851562 2.371094 -0.851562 2.25 -0.789062 2.066406 C -0.183594 0.546875 0.851562 -0.730469 2.25 -1.761719 C 2.1875 0.183594 1.277344 2.066406 0.121094 2.980469 C 0 3.101562 -0.121094 3.160156 -0.304688 3.160156 Z M -0.304688 3.160156 "/></g></g></g><g fill="#dc3c4d" fill-opacity="0.502"><g transform="translate(155.080395, 84.948465)"><g><path d="M 1.15625 1.945312 C 1.335938 1.945312 1.582031 1.824219 1.886719 1.640625 C 2.3125 1.335938 2.613281 0.914062 2.859375 0.363281 C 3.34375 -0.488281 3.832031 -1.335938 4.257812 -2.25 C 5.960938 -5.777344 8.269531 -10.582031 10.945312 -13.558594 C 11.128906 -13.742188 11.371094 -13.984375 11.675781 -14.167969 C 11.734375 -14.230469 11.796875 -14.230469 11.859375 -14.230469 C 12.039062 -14.230469 12.101562 -14.167969 12.101562 -13.984375 C 12.160156 -13.683594 12.160156 -13.4375 12.160156 -13.195312 C 12.160156 -12.953125 12.160156 -12.707031 12.160156 -12.40625 C 12.101562 -11.128906 12.101562 -9.851562 12.34375 -8.632812 C 12.648438 -7.175781 13.4375 -6.445312 14.65625 -6.445312 C 16.234375 -6.445312 22.804688 -10.882812 23.289062 -12.648438 C 23.351562 -12.953125 23.230469 -13.195312 22.984375 -13.378906 C 22.925781 -13.4375 22.863281 -13.4375 22.804688 -13.5 C 22.742188 -13.558594 22.621094 -13.558594 22.558594 -13.558594 C 22.4375 -13.558594 22.316406 -13.5 22.253906 -13.4375 C 22.011719 -13.257812 21.769531 -13.011719 21.585938 -12.769531 C 20.429688 -11.613281 16.90625 -8.9375 15.445312 -8.269531 C 15.203125 -8.148438 14.957031 -8.085938 14.714844 -8.085938 C 14.289062 -8.085938 13.984375 -8.453125 13.863281 -9.121094 C 13.804688 -9.363281 13.742188 -9.609375 13.742188 -9.910156 C 13.742188 -10.15625 13.742188 -10.398438 13.742188 -10.703125 C 13.683594 -11.1875 13.683594 -11.675781 13.742188 -12.160156 C 13.742188 -12.648438 13.742188 -13.132812 13.742188 -13.683594 C 13.742188 -13.925781 13.742188 -14.167969 13.804688 -14.472656 C 13.804688 -14.714844 13.742188 -14.957031 13.683594 -15.261719 C 13.558594 -16.054688 13.132812 -16.480469 12.40625 -16.480469 C 12.039062 -16.480469 11.734375 -16.355469 11.492188 -16.175781 C 8.332031 -13.984375 4.5625 -6.628906 2.917969 -3.160156 C 2.738281 -2.859375 2.613281 -2.554688 2.492188 -2.25 C 2.371094 -1.945312 2.128906 -1.640625 1.703125 -1.335938 C 1.640625 -1.761719 1.582031 -1.886719 1.582031 -2.128906 C 1.582031 -6.386719 3.464844 -16.175781 5.835938 -19.945312 C 9 -24.808594 11.433594 -29.796875 13.804688 -35.085938 C 13.925781 -35.390625 14.046875 -35.695312 14.167969 -36 C 14.289062 -36.300781 14.410156 -36.605469 14.472656 -36.910156 C 14.53125 -37.09375 14.59375 -37.214844 14.59375 -37.398438 C 14.59375 -37.578125 14.59375 -37.699219 14.59375 -37.882812 C 14.59375 -38.1875 14.410156 -38.371094 13.984375 -38.371094 C 13.925781 -38.371094 13.863281 -38.371094 13.804688 -38.308594 C 13.5 -38.125 13.195312 -37.945312 13.011719 -37.761719 C 8.878906 -32.351562 5.65625 -25.476562 3.527344 -19.09375 C 3.285156 -18.425781 3.039062 -17.816406 2.859375 -17.207031 C 2.613281 -16.601562 2.3125 -15.992188 1.886719 -15.445312 C 1.824219 -15.261719 1.703125 -15.140625 1.640625 -14.957031 C 1.519531 -14.777344 1.519531 -14.53125 1.582031 -14.351562 C 1.761719 -13.925781 1.824219 -13.5 1.761719 -13.132812 C 1.640625 -12.769531 1.519531 -12.40625 1.460938 -12.039062 C 1.335938 -11.25 1.214844 -10.457031 1.035156 -9.730469 C 0.851562 -8.9375 0.667969 -8.148438 0.546875 -7.359375 C 0.121094 -4.984375 -0.183594 -2.796875 0 -0.425781 C 0 0.121094 0.0625 0.667969 0.183594 1.15625 C 0.363281 1.703125 0.730469 1.945312 1.15625 1.945312 Z M 8.511719 -27.242188 C 8.816406 -27.546875 8.878906 -27.851562 8.9375 -28.277344 C 9 -27.972656 8.878906 -27.667969 8.574219 -27.300781 L 8.574219 -27.242188 Z M 9.058594 -28.398438 C 9.242188 -28.578125 9.363281 -28.640625 9.425781 -28.703125 Z M 9.609375 -29.003906 L 9.789062 -29.492188 C 9.730469 -29.429688 9.730469 -29.308594 9.730469 -29.25 C 9.730469 -29.1875 9.667969 -29.066406 9.609375 -29.003906 Z M 9.609375 -29.003906 "/></g></g></g><g fill="#dc3c4d" fill-opacity="0.502"><g transform="translate(175.32906, 84.948465)"><g/></g></g><g fill="#dc3c4d" fill-opacity="0.502"><g transform="translate(198.435642, 84.948465)"><g><path d="M 1.15625 5.65625 C 1.460938 5.65625 1.761719 5.535156 2.007812 5.289062 C 2.3125 5.046875 2.554688 4.804688 2.738281 4.5 C 2.917969 4.195312 3.101562 3.832031 3.285156 3.527344 C 3.832031 2.613281 4.316406 1.640625 4.804688 0.667969 C 5.289062 -0.304688 5.777344 -1.277344 6.261719 -2.25 C 7.417969 -4.4375 9.789062 -9.121094 11.675781 -12.527344 C 12.832031 -14.53125 14.046875 -16.601562 15.324219 -18.730469 C 17.9375 -22.925781 20.613281 -26.753906 23.289062 -29.550781 C 24.628906 -30.949219 25.902344 -31.925781 27.058594 -32.53125 C 27.484375 -32.773438 27.851562 -32.898438 28.152344 -32.898438 C 28.761719 -32.898438 29.125 -32.410156 29.308594 -31.4375 C 29.492188 -30.648438 29.492188 -29.796875 29.371094 -28.824219 C 28.398438 -21.953125 25.054688 -14.167969 19.03125 -10.277344 C 18.363281 -9.851562 17.695312 -9.425781 16.90625 -9.242188 C 16.113281 -9.242188 15.566406 -9.425781 15.566406 -10.335938 C 15.628906 -11.734375 16.054688 -12.953125 17.269531 -13.742188 C 17.511719 -13.925781 17.757812 -14.046875 18 -14.230469 C 18.242188 -14.410156 18.484375 -14.59375 18.730469 -14.777344 C 19.03125 -15.019531 19.09375 -15.324219 18.851562 -15.6875 C 18.789062 -15.871094 18.546875 -15.992188 18.242188 -15.992188 L 18 -15.992188 C 17.9375 -15.992188 17.878906 -15.992188 17.816406 -15.929688 C 16.84375 -15.445312 15.929688 -14.957031 15.261719 -14.046875 C 14.167969 -12.769531 13.804688 -11.308594 14.105469 -9.609375 C 14.289062 -8.332031 15.082031 -7.660156 16.480469 -7.660156 C 19.519531 -7.660156 23.652344 -11.796875 25.355469 -14.167969 C 28.457031 -18.484375 30.160156 -23.167969 30.890625 -28.335938 C 30.949219 -28.761719 31.011719 -29.1875 31.011719 -29.613281 C 30.949219 -30.039062 30.949219 -30.464844 30.949219 -30.890625 C 31.011719 -31.558594 30.769531 -32.167969 30.527344 -32.835938 C 30.039062 -33.929688 29.25 -34.476562 28.214844 -34.476562 C 28.03125 -34.476562 27.726562 -34.417969 27.300781 -34.355469 C 24.808594 -33.6875 21.828125 -30.585938 18.730469 -26.511719 C 17.207031 -24.445312 15.6875 -22.195312 14.167969 -19.761719 C 11.1875 -14.835938 8.453125 -9.972656 6.261719 -5.714844 C 5.167969 -3.585938 4.257812 -1.761719 3.585938 -0.363281 C 3.160156 0.425781 2.796875 1.15625 2.371094 1.886719 C 2.3125 2.066406 2.1875 2.1875 2.066406 2.1875 C 2.007812 2.1875 1.945312 2.1875 1.886719 2.128906 C 1.824219 2.066406 1.761719 1.945312 1.761719 1.640625 C 1.761719 1.335938 1.761719 1.15625 1.824219 1.035156 C 2.371094 -4.316406 3.710938 -10.035156 5.410156 -15.628906 C 7.113281 -21.160156 9.183594 -26.632812 11.308594 -31.5 C 11.554688 -32.046875 11.796875 -32.652344 12.039062 -33.199219 C 12.28125 -33.75 12.527344 -34.296875 12.707031 -34.84375 C 12.832031 -35.148438 12.890625 -35.449219 12.890625 -35.753906 C 12.890625 -36.179688 12.585938 -36.363281 12.160156 -36.363281 C 12.039062 -36.363281 11.917969 -36.300781 11.859375 -36.242188 C 11.613281 -35.816406 11.371094 -35.449219 11.128906 -35.023438 C 8.632812 -29.429688 6.019531 -22.984375 4.011719 -16.417969 C 2.007812 -9.851562 0.488281 -3.101562 0 3.160156 C 0.0625 3.34375 0.0625 3.585938 0.0625 3.890625 C 0 4.195312 0.0625 4.4375 0.121094 4.742188 C 0.304688 5.351562 0.667969 5.65625 1.15625 5.65625 Z M 1.15625 5.65625 "/></g></g></g><g fill="#fa3343" fill-opacity="1"><g transform="translate(14.735036, 83.843275)"><g><path d="M 13.742188 15.929688 L 14.167969 15.929688 C 18 15.140625 21.101562 7.359375 22.253906 3.527344 C 22.679688 2.3125 23.230469 1.460938 24.140625 0.546875 C 27.789062 -3.160156 31.4375 -6.808594 35.328125 -10.214844 C 35.816406 -10.640625 36.242188 -11.007812 36.667969 -11.433594 L 37.214844 -11.980469 C 37.519531 -12.40625 37.519531 -12.769531 37.214844 -13.074219 C 37.03125 -13.195312 36.847656 -13.257812 36.667969 -13.257812 C 36.484375 -13.257812 36.300781 -13.195312 36.121094 -13.074219 C 36 -13.011719 35.875 -12.890625 35.816406 -12.832031 C 35.695312 -12.707031 35.574219 -12.585938 35.511719 -12.527344 C 31.863281 -9.304688 28.398438 -6.019531 24.992188 -2.554688 C 24.808594 -2.371094 24.628906 -2.128906 24.324219 -2.128906 L 24.140625 -2.128906 C 23.957031 -2.433594 24.019531 -2.796875 24.203125 -3.101562 C 25.722656 -9.363281 26.878906 -15.445312 28.09375 -21.769531 C 28.152344 -22.195312 28.214844 -22.4375 28.214844 -22.742188 C 28.214844 -23.105469 28.09375 -23.351562 27.910156 -23.410156 C 27.667969 -23.472656 27.484375 -23.53125 27.425781 -23.53125 C 27.300781 -23.53125 27.121094 -23.472656 26.9375 -23.351562 C 26.511719 -22.925781 26.148438 -22.5 25.78125 -22.011719 C 24.203125 -20.1875 22.621094 -18.363281 21.101562 -16.480469 C 19.519531 -14.59375 17.9375 -12.769531 16.355469 -10.945312 C 15.445312 -9.789062 12.34375 -6.628906 10.398438 -4.804688 C 8.332031 -2.859375 5.230469 -0.488281 3.527344 -0.488281 C 2.554688 -0.488281 1.945312 -1.277344 1.703125 -2.859375 C 1.582031 -3.285156 1.582031 -3.832031 1.640625 -4.4375 C 1.703125 -5.109375 1.761719 -5.714844 1.945312 -6.386719 C 3.890625 -14.59375 8.695312 -24.808594 15.382812 -30.039062 C 16.78125 -31.195312 18.730469 -32.289062 20.613281 -32.289062 C 21.828125 -32.289062 22.5 -31.5 22.621094 -29.855469 C 22.621094 -27.972656 22.195312 -26.390625 21.527344 -24.628906 C 20.613281 -22.5 19.703125 -20.554688 18.546875 -18.605469 C 18.484375 -18.425781 18.363281 -18.242188 18.242188 -18.058594 C 18.121094 -17.878906 18 -17.757812 17.9375 -17.574219 C 17.878906 -17.332031 17.9375 -17.148438 18.121094 -17.027344 C 18.179688 -16.964844 18.363281 -16.964844 18.546875 -16.964844 L 18.667969 -16.964844 C 20.429688 -17.757812 23.53125 -25.355469 24.019531 -27.910156 C 24.140625 -28.457031 24.203125 -29.066406 24.203125 -29.675781 C 24.203125 -30.28125 24.078125 -30.890625 23.898438 -31.4375 C 23.410156 -33.078125 22.316406 -33.871094 20.675781 -33.871094 C 16.539062 -33.871094 12.464844 -29.976562 9.910156 -26.753906 C 5.109375 -20.855469 2.1875 -14.105469 0.425781 -6.75 C 0.183594 -5.59375 -0.0625 -4.5625 0 -3.40625 C 0.183594 -1.214844 1.15625 1.15625 3.40625 1.15625 C 3.464844 1.15625 3.585938 1.15625 3.648438 1.15625 C 3.710938 1.09375 3.832031 1.09375 3.890625 1.09375 C 7.964844 0.609375 15.6875 -7.539062 18.304688 -10.703125 L 24.503906 -18 C 24.6875 -18.179688 24.808594 -18.425781 24.992188 -18.667969 C 25.113281 -18.851562 25.355469 -18.972656 25.722656 -18.972656 C 25.902344 -18.546875 25.78125 -18.058594 25.722656 -17.632812 C 24.566406 -11.796875 23.351562 -6.140625 21.828125 -0.363281 C 21.585938 0.546875 21.101562 1.398438 20.429688 2.1875 C 18.242188 4.5 12.464844 10.882812 12.160156 13.984375 C 12.039062 15.261719 12.585938 15.929688 13.742188 15.929688 Z M 14.351562 14.167969 C 14.230469 14.230469 14.105469 14.230469 13.984375 14.105469 C 13.925781 14.046875 13.863281 13.925781 13.863281 13.804688 C 13.925781 12.890625 14.410156 12.160156 14.898438 11.492188 C 15.382812 10.824219 15.871094 10.15625 16.417969 9.484375 C 16.964844 8.816406 17.453125 8.085938 18 7.417969 C 18.179688 7.113281 18.425781 6.808594 18.667969 6.628906 C 18.910156 6.386719 19.09375 6.082031 19.214844 5.777344 C 19.519531 6.082031 19.519531 6.386719 19.335938 6.808594 C 18.546875 8.9375 17.574219 10.945312 16.175781 12.707031 C 15.628906 13.378906 15.082031 13.863281 14.351562 14.167969 Z M 14.351562 14.167969 "/></g></g></g><g fill="#fa3343" fill-opacity="1"><g transform="translate(49.090878, 83.843275)"><g><path d="M 2.859375 -2.554688 C 7.054688 -2.554688 13.4375 -8.757812 16.355469 -11.859375 C 16.601562 -12.101562 16.78125 -12.28125 16.84375 -12.464844 C 17.027344 -12.769531 16.964844 -13.074219 16.660156 -13.378906 C 16.539062 -13.5 16.417969 -13.558594 16.234375 -13.558594 C 16.113281 -13.558594 15.929688 -13.5 15.75 -13.378906 C 15.566406 -13.195312 15.382812 -13.011719 15.203125 -12.832031 C 15.019531 -12.648438 14.777344 -12.464844 14.59375 -12.28125 C 13.863281 -11.613281 13.132812 -10.945312 12.464844 -10.277344 C 11.734375 -9.609375 11.007812 -8.878906 10.277344 -8.210938 C 8.511719 -6.566406 5.714844 -4.621094 3.285156 -4.136719 C 2.128906 -4.136719 1.460938 -4.136719 1.214844 -5.535156 C 0.914062 -6.324219 0.851562 -6.992188 1.035156 -7.660156 C 1.09375 -7.964844 1.277344 -8.148438 1.519531 -8.210938 C 4.4375 -8.511719 8.269531 -12.101562 8.757812 -15.082031 C 8.9375 -16.480469 8.148438 -17.332031 6.933594 -17.332031 C 6.871094 -17.332031 6.75 -17.332031 6.6875 -17.332031 C 6.628906 -17.269531 6.507812 -17.269531 6.445312 -17.269531 C 3.222656 -16.78125 0.851562 -12.527344 -0.183594 -9.667969 C -0.425781 -8.757812 -0.667969 -7.90625 -0.609375 -6.871094 C -0.667969 -6.203125 -0.488281 -5.472656 -0.242188 -4.804688 C 0.183594 -3.285156 1.214844 -2.554688 2.859375 -2.554688 Z M 2.3125 -10.035156 C 2.25 -9.972656 2.128906 -10.035156 1.945312 -10.09375 C 1.886719 -10.09375 1.824219 -10.214844 1.824219 -10.398438 C 2.492188 -12.28125 4.5625 -15.324219 6.566406 -15.628906 C 6.871094 -15.6875 7.054688 -15.566406 7.113281 -15.140625 C 7.113281 -13.195312 3.890625 -10.882812 2.3125 -10.035156 Z M 2.3125 -10.035156 "/></g></g></g><g fill="#fa3343" fill-opacity="1"><g transform="translate(62.954827, 83.843275)"><g><path d="M 2.859375 -2.554688 C 7.054688 -2.554688 13.4375 -8.757812 16.355469 -11.859375 C 16.601562 -12.101562 16.78125 -12.28125 16.84375 -12.464844 C 17.027344 -12.769531 16.964844 -13.074219 16.660156 -13.378906 C 16.539062 -13.5 16.417969 -13.558594 16.234375 -13.558594 C 16.113281 -13.558594 15.929688 -13.5 15.75 -13.378906 C 15.566406 -13.195312 15.382812 -13.011719 15.203125 -12.832031 C 15.019531 -12.648438 14.777344 -12.464844 14.59375 -12.28125 C 13.863281 -11.613281 13.132812 -10.945312 12.464844 -10.277344 C 11.734375 -9.609375 11.007812 -8.878906 10.277344 -8.210938 C 8.511719 -6.566406 5.714844 -4.621094 3.285156 -4.136719 C 2.128906 -4.136719 1.460938 -4.136719 1.214844 -5.535156 C 0.914062 -6.324219 0.851562 -6.992188 1.035156 -7.660156 C 1.09375 -7.964844 1.277344 -8.148438 1.519531 -8.210938 C 4.4375 -8.511719 8.269531 -12.101562 8.757812 -15.082031 C 8.9375 -16.480469 8.148438 -17.332031 6.933594 -17.332031 C 6.871094 -17.332031 6.75 -17.332031 6.6875 -17.332031 C 6.628906 -17.269531 6.507812 -17.269531 6.445312 -17.269531 C 3.222656 -16.78125 0.851562 -12.527344 -0.183594 -9.667969 C -0.425781 -8.757812 -0.667969 -7.90625 -0.609375 -6.871094 C -0.667969 -6.203125 -0.488281 -5.472656 -0.242188 -4.804688 C 0.183594 -3.285156 1.214844 -2.554688 2.859375 -2.554688 Z M 2.3125 -10.035156 C 2.25 -9.972656 2.128906 -10.035156 1.945312 -10.09375 C 1.886719 -10.09375 1.824219 -10.214844 1.824219 -10.398438 C 2.492188 -12.28125 4.5625 -15.324219 6.566406 -15.628906 C 6.871094 -15.6875 7.054688 -15.566406 7.113281 -15.140625 C 7.113281 -13.195312 3.890625 -10.882812 2.3125 -10.035156 Z M 2.3125 -10.035156 "/></g></g></g><g fill="#fa3343" fill-opacity="1"><g transform="translate(76.818777, 83.843275)"><g><path d="M 1.09375 4.316406 C 2.066406 4.316406 3.222656 3.464844 3.769531 2.738281 C 5.714844 0.488281 7.90625 -2.492188 9.910156 -5.230469 C 11.613281 -7.539062 13.863281 -10.640625 15.082031 -12.101562 C 15.203125 -12.222656 15.261719 -12.34375 15.261719 -12.464844 C 15.445312 -12.832031 15.382812 -13.132812 15.082031 -13.378906 C 14.898438 -13.4375 14.777344 -13.5 14.65625 -13.5 C 14.59375 -13.5 14.59375 -13.5 14.53125 -13.5 C 14.472656 -13.4375 14.472656 -13.4375 14.410156 -13.4375 C 14.105469 -13.316406 13.863281 -13.132812 13.683594 -12.953125 C 13.5 -12.707031 13.257812 -12.464844 13.074219 -12.222656 C 11.308594 -10.457031 5.960938 -2.433594 3.40625 0.789062 C 3.101562 1.15625 2.796875 1.519531 2.492188 1.886719 C 2.1875 2.1875 1.824219 2.433594 1.277344 2.492188 C 0.363281 1.761719 0.667969 0.667969 0.730469 -0.242188 C 0.914062 -2.371094 1.15625 -4.316406 1.640625 -6.324219 C 2.433594 -9.851562 5.59375 -19.519531 6.992188 -22.621094 C 7.296875 -23.410156 7.90625 -23.777344 8.757812 -23.835938 L 21.828125 -24.992188 C 22.132812 -25.054688 22.378906 -25.054688 22.621094 -25.113281 C 22.863281 -25.113281 23.105469 -25.175781 23.410156 -25.234375 C 23.652344 -25.296875 23.777344 -25.539062 23.777344 -25.84375 C 23.714844 -26.269531 23.53125 -26.453125 23.289062 -26.453125 L 21.101562 -26.453125 C 19.398438 -26.269531 17.574219 -26.085938 15.566406 -25.964844 C 13.558594 -25.78125 11.734375 -25.601562 10.035156 -25.417969 C 9.972656 -25.417969 9.851562 -25.417969 9.730469 -25.417969 C 9.609375 -25.355469 9.484375 -25.355469 9.363281 -25.355469 C 9.121094 -25.355469 8.878906 -25.417969 8.574219 -25.476562 C 8.574219 -25.78125 8.632812 -26.085938 8.757812 -26.328125 C 8.816406 -26.511719 8.9375 -26.753906 9 -26.9375 C 9.789062 -28.578125 10.582031 -30.160156 11.25 -31.800781 C 11.554688 -32.351562 11.613281 -32.835938 11.554688 -33.140625 C 11.433594 -33.445312 11.25 -33.566406 11.007812 -33.566406 C 10.582031 -33.566406 10.15625 -33.199219 9.730469 -32.472656 C 9.425781 -31.984375 9.121094 -31.5 8.878906 -31.011719 C 8.574219 -30.527344 8.332031 -30.039062 8.027344 -29.550781 L 6.386719 -25.902344 C 6.082031 -25.234375 5.59375 -24.929688 4.863281 -24.871094 C 3.832031 -24.75 2.738281 -24.628906 1.640625 -24.503906 C 0.546875 -24.382812 -0.546875 -24.261719 -1.640625 -24.078125 C -1.945312 -24.019531 -2.25 -23.957031 -2.554688 -23.898438 C -2.796875 -23.835938 -3.039062 -23.714844 -3.34375 -23.652344 C -3.648438 -23.59375 -3.710938 -23.351562 -3.648438 -22.984375 C -3.585938 -22.804688 -3.464844 -22.679688 -3.222656 -22.621094 C -3.039062 -22.558594 -2.859375 -22.558594 -2.554688 -22.558594 C -2.066406 -22.558594 -1.519531 -22.679688 -1.035156 -22.742188 C -0.242188 -22.804688 0.609375 -22.925781 1.460938 -23.046875 C 2.25 -23.167969 3.101562 -23.289062 3.890625 -23.351562 L 4.378906 -23.351562 C 5.109375 -23.351562 5.167969 -23.046875 4.863281 -22.132812 C 4.4375 -21.101562 4.136719 -20.128906 3.710938 -18.972656 C 1.703125 -13.5 -0.851562 -5.167969 -0.851562 0.730469 C -0.851562 2.128906 -0.488281 4.316406 1.09375 4.316406 Z M 1.09375 4.316406 "/></g></g></g><g fill="#fa3343" fill-opacity="1"><g transform="translate(89.040945, 83.843275)"><g><path d="M 1.15625 1.945312 C 1.335938 1.945312 1.582031 1.824219 1.886719 1.640625 C 2.3125 1.335938 2.613281 0.914062 2.859375 0.363281 C 3.34375 -0.488281 3.832031 -1.335938 4.257812 -2.25 C 5.960938 -5.777344 8.269531 -10.582031 10.945312 -13.558594 C 11.128906 -13.742188 11.371094 -13.984375 11.675781 -14.167969 C 11.734375 -14.230469 11.796875 -14.230469 11.859375 -14.230469 C 12.039062 -14.230469 12.101562 -14.167969 12.101562 -13.984375 C 12.160156 -13.683594 12.160156 -13.4375 12.160156 -13.195312 C 12.160156 -12.953125 12.160156 -12.707031 12.160156 -12.40625 C 12.101562 -11.128906 12.101562 -9.851562 12.34375 -8.632812 C 12.648438 -7.175781 13.4375 -6.445312 14.65625 -6.445312 C 16.234375 -6.445312 22.804688 -10.882812 23.289062 -12.648438 C 23.351562 -12.953125 23.230469 -13.195312 22.984375 -13.378906 C 22.925781 -13.4375 22.863281 -13.4375 22.804688 -13.5 C 22.742188 -13.558594 22.621094 -13.558594 22.558594 -13.558594 C 22.4375 -13.558594 22.316406 -13.5 22.253906 -13.4375 C 22.011719 -13.257812 21.769531 -13.011719 21.585938 -12.769531 C 20.429688 -11.613281 16.90625 -8.9375 15.445312 -8.269531 C 15.203125 -8.148438 14.957031 -8.085938 14.714844 -8.085938 C 14.289062 -8.085938 13.984375 -8.453125 13.863281 -9.121094 C 13.804688 -9.363281 13.742188 -9.609375 13.742188 -9.910156 C 13.742188 -10.15625 13.742188 -10.398438 13.742188 -10.703125 C 13.683594 -11.1875 13.683594 -11.675781 13.742188 -12.160156 C 13.742188 -12.648438 13.742188 -13.132812 13.742188 -13.683594 C 13.742188 -13.925781 13.742188 -14.167969 13.804688 -14.472656 C 13.804688 -14.714844 13.742188 -14.957031 13.683594 -15.261719 C 13.558594 -16.054688 13.132812 -16.480469 12.40625 -16.480469 C 12.039062 -16.480469 11.734375 -16.355469 11.492188 -16.175781 C 8.332031 -13.984375 4.5625 -6.628906 2.917969 -3.160156 C 2.738281 -2.859375 2.613281 -2.554688 2.492188 -2.25 C 2.371094 -1.945312 2.128906 -1.640625 1.703125 -1.335938 C 1.640625 -1.761719 1.582031 -1.886719 1.582031 -2.128906 C 1.582031 -6.386719 3.464844 -16.175781 5.835938 -19.945312 C 9 -24.808594 11.433594 -29.796875 13.804688 -35.085938 C 13.925781 -35.390625 14.046875 -35.695312 14.167969 -36 C 14.289062 -36.300781 14.410156 -36.605469 14.472656 -36.910156 C 14.53125 -37.09375 14.59375 -37.214844 14.59375 -37.398438 C 14.59375 -37.578125 14.59375 -37.699219 14.59375 -37.882812 C 14.59375 -38.1875 14.410156 -38.371094 13.984375 -38.371094 C 13.925781 -38.371094 13.863281 -38.371094 13.804688 -38.308594 C 13.5 -38.125 13.195312 -37.945312 13.011719 -37.761719 C 8.878906 -32.351562 5.65625 -25.476562 3.527344 -19.09375 C 3.285156 -18.425781 3.039062 -17.816406 2.859375 -17.207031 C 2.613281 -16.601562 2.3125 -15.992188 1.886719 -15.445312 C 1.824219 -15.261719 1.703125 -15.140625 1.640625 -14.957031 C 1.519531 -14.777344 1.519531 -14.53125 1.582031 -14.351562 C 1.761719 -13.925781 1.824219 -13.5 1.761719 -13.132812 C 1.640625 -12.769531 1.519531 -12.40625 1.460938 -12.039062 C 1.335938 -11.25 1.214844 -10.457031 1.035156 -9.730469 C 0.851562 -8.9375 0.667969 -8.148438 0.546875 -7.359375 C 0.121094 -4.984375 -0.183594 -2.796875 0 -0.425781 C 0 0.121094 0.0625 0.667969 0.183594 1.15625 C 0.363281 1.703125 0.730469 1.945312 1.15625 1.945312 Z M 8.511719 -27.242188 C 8.816406 -27.546875 8.878906 -27.851562 8.9375 -28.277344 C 9 -27.972656 8.878906 -27.667969 8.574219 -27.300781 L 8.574219 -27.242188 Z M 9.058594 -28.398438 C 9.242188 -28.578125 9.363281 -28.640625 9.425781 -28.703125 Z M 9.609375 -29.003906 L 9.789062 -29.492188 C 9.730469 -29.429688 9.730469 -29.308594 9.730469 -29.25 C 9.730469 -29.1875 9.667969 -29.066406 9.609375 -29.003906 Z M 9.609375 -29.003906 "/></g></g></g><g fill="#fa3343" fill-opacity="1"><g transform="translate(109.289611, 83.843275)"><g><path d="M 0.304688 -5.230469 C 1.09375 -5.230469 2.128906 -6.082031 2.675781 -6.566406 C 4.195312 -7.964844 5.535156 -9.425781 6.933594 -11.066406 C 7.113281 -11.25 7.359375 -11.492188 7.539062 -11.734375 C 7.722656 -11.980469 8.027344 -12.160156 8.453125 -12.34375 C 8.027344 -10.703125 7.660156 -9.121094 7.660156 -7.480469 C 7.660156 -6.324219 8.148438 -5.714844 9.183594 -5.714844 C 9.425781 -5.714844 9.609375 -5.714844 9.730469 -5.777344 C 12.28125 -6.203125 16.601562 -10.277344 18.363281 -12.039062 C 18.425781 -12.101562 18.546875 -12.222656 18.605469 -12.28125 C 18.667969 -12.34375 18.667969 -12.40625 18.730469 -12.464844 C 18.851562 -12.890625 18.789062 -13.195312 18.484375 -13.378906 C 18.363281 -13.5 18.242188 -13.558594 18.058594 -13.558594 C 18 -13.558594 17.9375 -13.5 17.757812 -13.4375 C 17.574219 -13.316406 17.390625 -13.195312 17.269531 -13.074219 C 17.085938 -12.890625 16.90625 -12.769531 16.722656 -12.585938 C 16.175781 -12.160156 15.6875 -11.734375 15.261719 -11.308594 C 14.777344 -10.882812 14.289062 -10.398438 13.742188 -9.972656 C 13.011719 -9.304688 12.222656 -8.816406 11.492188 -8.332031 C 10.945312 -8.027344 10.398438 -7.785156 9.851562 -7.539062 C 9.789062 -7.480469 9.730469 -7.480469 9.609375 -7.480469 C 9.363281 -7.480469 9.242188 -7.660156 9.242188 -8.027344 C 9.242188 -10.640625 11.128906 -15.082031 12.28125 -17.390625 C 12.40625 -17.695312 12.527344 -17.9375 12.707031 -18.242188 C 12.832031 -18.484375 12.953125 -18.730469 13.074219 -19.03125 C 13.257812 -19.582031 13.195312 -20.003906 12.769531 -20.25 C 12.585938 -20.308594 12.464844 -20.371094 12.40625 -20.371094 C 12.222656 -20.371094 11.980469 -20.25 11.675781 -19.945312 C 11.492188 -19.761719 11.371094 -19.519531 11.25 -19.335938 C 11.066406 -19.09375 10.945312 -18.851562 10.761719 -18.667969 C 10.398438 -18.179688 10.035156 -17.695312 9.730469 -17.207031 C 9.363281 -16.722656 9 -16.234375 8.632812 -15.808594 C 8.390625 -15.507812 8.210938 -15.324219 8.085938 -15.324219 C 8.027344 -15.324219 7.84375 -15.445312 7.539062 -15.628906 C 6.933594 -16.113281 6.324219 -16.355469 5.714844 -16.355469 C 5.046875 -16.355469 4.378906 -16.113281 3.710938 -15.566406 C 3.285156 -15.261719 2.980469 -15.019531 2.796875 -14.777344 C 0.972656 -12.953125 -1.035156 -9.363281 -1.035156 -6.6875 C -0.972656 -5.714844 -0.488281 -5.230469 0.304688 -5.230469 Z M 0.851562 -7.417969 C 0.851562 -7.480469 0.851562 -7.480469 0.789062 -7.480469 L 0.730469 -7.539062 C 1.214844 -10.15625 2.433594 -12.34375 4.316406 -13.984375 C 4.621094 -14.289062 5.351562 -14.714844 5.777344 -14.714844 C 6.082031 -14.714844 6.324219 -14.59375 6.628906 -14.410156 C 6.933594 -14.230469 6.992188 -13.925781 6.871094 -13.558594 C 6.808594 -13.378906 6.6875 -13.316406 6.628906 -13.257812 C 4.984375 -11.25 3.34375 -9.242188 1.398438 -7.601562 C 1.277344 -7.480469 1.09375 -7.417969 0.851562 -7.417969 Z M 0.851562 -7.417969 "/></g></g></g><g fill="#fa3343" fill-opacity="1"><g transform="translate(125.038568, 83.843275)"><g><path d="M -0.304688 -0.609375 C -0.0625 -0.609375 0.121094 -0.667969 0.304688 -0.789062 C 0.667969 -1.09375 0.972656 -1.398438 1.15625 -1.824219 C 1.335938 -2.1875 1.519531 -2.554688 1.703125 -2.917969 C 3.585938 -6.75 5.898438 -10.398438 9.058594 -13.257812 C 9.183594 -13.378906 9.304688 -13.4375 9.484375 -13.4375 C 9.667969 -13.4375 9.851562 -13.257812 9.910156 -12.953125 C 9.972656 -12.34375 10.09375 -11.734375 10.15625 -11.1875 C 10.214844 -10.582031 10.277344 -9.972656 10.335938 -9.363281 C 10.398438 -8.632812 10.582031 -7.90625 11.007812 -7.113281 C 11.492188 -6.261719 12.160156 -5.835938 12.953125 -5.835938 C 13.011719 -5.835938 13.132812 -5.835938 13.257812 -5.898438 C 13.316406 -5.898438 13.4375 -5.898438 13.5 -5.898438 C 14.410156 -6.082031 15.203125 -6.507812 15.929688 -7.175781 C 16.601562 -7.785156 20.1875 -11.007812 20.855469 -11.675781 C 21.101562 -11.917969 21.28125 -12.222656 21.40625 -12.527344 C 21.527344 -12.832031 21.464844 -13.132812 21.160156 -13.378906 C 21.039062 -13.5 20.917969 -13.558594 20.734375 -13.558594 C 20.554688 -13.558594 20.429688 -13.5 20.308594 -13.378906 C 20.1875 -13.316406 20.066406 -13.132812 19.882812 -12.953125 C 19.703125 -12.769531 19.277344 -12.34375 18.605469 -11.796875 C 18.058594 -11.308594 17.511719 -10.824219 17.027344 -10.335938 C 16.480469 -9.789062 15.992188 -9.304688 15.445312 -8.816406 C 14.777344 -8.269531 14.167969 -7.785156 13.4375 -7.539062 C 13.378906 -7.539062 13.316406 -7.539062 13.316406 -7.539062 C 13.257812 -7.480469 13.195312 -7.480469 13.132812 -7.480469 C 12.769531 -7.480469 12.527344 -7.660156 12.40625 -7.964844 C 12.101562 -8.511719 11.917969 -9.121094 11.859375 -9.851562 C 11.796875 -10.335938 11.734375 -10.824219 11.734375 -11.308594 C 11.675781 -11.796875 11.613281 -12.28125 11.554688 -12.832031 C 11.371094 -13.863281 11.1875 -15.324219 9.789062 -15.324219 C 7.417969 -15.324219 2.738281 -8.332031 1.703125 -6.261719 C 1.519531 -6.6875 1.460938 -7.054688 1.640625 -7.417969 C 1.761719 -7.785156 1.886719 -8.148438 2.007812 -8.511719 C 2.613281 -10.035156 3.222656 -11.613281 3.832031 -13.195312 C 4.378906 -14.714844 4.984375 -16.296875 5.59375 -17.816406 L 5.960938 -18.546875 C 6.140625 -18.972656 6.082031 -19.335938 5.65625 -19.582031 C 5.472656 -19.640625 5.351562 -19.703125 5.289062 -19.703125 C 4.621094 -19.703125 4.074219 -18.058594 3.710938 -17.511719 C 3.160156 -15.992188 2.554688 -14.472656 2.007812 -12.953125 C 1.460938 -11.433594 0.851562 -9.910156 0.304688 -8.390625 C -0.363281 -6.386719 -0.972656 -4.378906 -1.214844 -2.25 C -1.214844 -1.886719 -1.214844 -1.640625 -1.15625 -1.460938 C -1.09375 -0.914062 -0.789062 -0.609375 -0.304688 -0.609375 Z M -0.304688 -0.609375 "/></g></g></g><g fill="#fa3343" fill-opacity="1"><g transform="translate(143.463024, 83.843275)"><g><path d="M -0.425781 4.863281 C 2.25 4.863281 4.074219 -0.121094 4.257812 -2.675781 C 4.378906 -3.464844 4.804688 -4.136719 5.472656 -4.621094 L 10.519531 -8.210938 C 12.039062 -9.363281 13.558594 -10.398438 15.203125 -11.554688 C 15.628906 -11.859375 15.992188 -12.160156 16.175781 -12.464844 C 16.480469 -12.769531 16.417969 -13.074219 16.054688 -13.378906 C 15.929688 -13.5 15.808594 -13.558594 15.628906 -13.558594 C 15.445312 -13.558594 15.261719 -13.5 15.082031 -13.378906 C 14.898438 -13.195312 14.714844 -13.074219 14.53125 -13.011719 L 5.714844 -6.808594 C 5.472656 -6.628906 5.167969 -6.445312 4.804688 -6.261719 C 4.621094 -6.566406 4.5 -6.75 4.5 -6.808594 C 4.316406 -9 3.953125 -11.128906 3.527344 -13.316406 C 3.464844 -13.621094 3.40625 -13.984375 3.40625 -14.289062 C 3.40625 -14.59375 3.40625 -14.957031 3.464844 -15.261719 C 3.648438 -17.511719 5.59375 -19.398438 7.84375 -19.398438 C 8.027344 -19.398438 8.148438 -19.398438 8.210938 -19.457031 C 8.632812 -19.640625 8.757812 -20.128906 8.453125 -20.429688 C 7.964844 -20.917969 7.660156 -20.917969 6.992188 -20.917969 C 6.324219 -20.917969 5.714844 -20.734375 5.109375 -20.371094 C 2.980469 -18.851562 1.703125 -16.90625 1.886719 -14.167969 C 1.945312 -13.378906 2.007812 -12.585938 2.1875 -11.796875 C 2.613281 -9.910156 2.859375 -8.210938 2.917969 -6.324219 C 2.917969 -5.167969 2.738281 -4.4375 1.824219 -3.710938 C 0.363281 -2.738281 -2.066406 0.304688 -2.371094 1.945312 C -2.554688 2.980469 -2.371094 3.890625 -1.398438 4.5625 C -1.09375 4.742188 -0.730469 4.863281 -0.425781 4.863281 Z M -0.304688 3.160156 C -0.488281 3.160156 -0.546875 3.101562 -0.609375 2.980469 C -0.730469 2.859375 -0.789062 2.675781 -0.789062 2.492188 C -0.851562 2.371094 -0.851562 2.25 -0.789062 2.066406 C -0.183594 0.546875 0.851562 -0.730469 2.25 -1.761719 C 2.1875 0.183594 1.277344 2.066406 0.121094 2.980469 C 0 3.101562 -0.121094 3.160156 -0.304688 3.160156 Z M -0.304688 3.160156 "/></g></g></g><g fill="#fa3343" fill-opacity="1"><g transform="translate(156.718911, 83.843275)"><g><path d="M 1.15625 1.945312 C 1.335938 1.945312 1.582031 1.824219 1.886719 1.640625 C 2.3125 1.335938 2.613281 0.914062 2.859375 0.363281 C 3.34375 -0.488281 3.832031 -1.335938 4.257812 -2.25 C 5.960938 -5.777344 8.269531 -10.582031 10.945312 -13.558594 C 11.128906 -13.742188 11.371094 -13.984375 11.675781 -14.167969 C 11.734375 -14.230469 11.796875 -14.230469 11.859375 -14.230469 C 12.039062 -14.230469 12.101562 -14.167969 12.101562 -13.984375 C 12.160156 -13.683594 12.160156 -13.4375 12.160156 -13.195312 C 12.160156 -12.953125 12.160156 -12.707031 12.160156 -12.40625 C 12.101562 -11.128906 12.101562 -9.851562 12.34375 -8.632812 C 12.648438 -7.175781 13.4375 -6.445312 14.65625 -6.445312 C 16.234375 -6.445312 22.804688 -10.882812 23.289062 -12.648438 C 23.351562 -12.953125 23.230469 -13.195312 22.984375 -13.378906 C 22.925781 -13.4375 22.863281 -13.4375 22.804688 -13.5 C 22.742188 -13.558594 22.621094 -13.558594 22.558594 -13.558594 C 22.4375 -13.558594 22.316406 -13.5 22.253906 -13.4375 C 22.011719 -13.257812 21.769531 -13.011719 21.585938 -12.769531 C 20.429688 -11.613281 16.90625 -8.9375 15.445312 -8.269531 C 15.203125 -8.148438 14.957031 -8.085938 14.714844 -8.085938 C 14.289062 -8.085938 13.984375 -8.453125 13.863281 -9.121094 C 13.804688 -9.363281 13.742188 -9.609375 13.742188 -9.910156 C 13.742188 -10.15625 13.742188 -10.398438 13.742188 -10.703125 C 13.683594 -11.1875 13.683594 -11.675781 13.742188 -12.160156 C 13.742188 -12.648438 13.742188 -13.132812 13.742188 -13.683594 C 13.742188 -13.925781 13.742188 -14.167969 13.804688 -14.472656 C 13.804688 -14.714844 13.742188 -14.957031 13.683594 -15.261719 C 13.558594 -16.054688 13.132812 -16.480469 12.40625 -16.480469 C 12.039062 -16.480469 11.734375 -16.355469 11.492188 -16.175781 C 8.332031 -13.984375 4.5625 -6.628906 2.917969 -3.160156 C 2.738281 -2.859375 2.613281 -2.554688 2.492188 -2.25 C 2.371094 -1.945312 2.128906 -1.640625 1.703125 -1.335938 C 1.640625 -1.761719 1.582031 -1.886719 1.582031 -2.128906 C 1.582031 -6.386719 3.464844 -16.175781 5.835938 -19.945312 C 9 -24.808594 11.433594 -29.796875 13.804688 -35.085938 C 13.925781 -35.390625 14.046875 -35.695312 14.167969 -36 C 14.289062 -36.300781 14.410156 -36.605469 14.472656 -36.910156 C 14.53125 -37.09375 14.59375 -37.214844 14.59375 -37.398438 C 14.59375 -37.578125 14.59375 -37.699219 14.59375 -37.882812 C 14.59375 -38.1875 14.410156 -38.371094 13.984375 -38.371094 C 13.925781 -38.371094 13.863281 -38.371094 13.804688 -38.308594 C 13.5 -38.125 13.195312 -37.945312 13.011719 -37.761719 C 8.878906 -32.351562 5.65625 -25.476562 3.527344 -19.09375 C 3.285156 -18.425781 3.039062 -17.816406 2.859375 -17.207031 C 2.613281 -16.601562 2.3125 -15.992188 1.886719 -15.445312 C 1.824219 -15.261719 1.703125 -15.140625 1.640625 -14.957031 C 1.519531 -14.777344 1.519531 -14.53125 1.582031 -14.351562 C 1.761719 -13.925781 1.824219 -13.5 1.761719 -13.132812 C 1.640625 -12.769531 1.519531 -12.40625 1.460938 -12.039062 C 1.335938 -11.25 1.214844 -10.457031 1.035156 -9.730469 C 0.851562 -8.9375 0.667969 -8.148438 0.546875 -7.359375 C 0.121094 -4.984375 -0.183594 -2.796875 0 -0.425781 C 0 0.121094 0.0625 0.667969 0.183594 1.15625 C 0.363281 1.703125 0.730469 1.945312 1.15625 1.945312 Z M 8.511719 -27.242188 C 8.816406 -27.546875 8.878906 -27.851562 8.9375 -28.277344 C 9 -27.972656 8.878906 -27.667969 8.574219 -27.300781 L 8.574219 -27.242188 Z M 9.058594 -28.398438 C 9.242188 -28.578125 9.363281 -28.640625 9.425781 -28.703125 Z M 9.609375 -29.003906 L 9.789062 -29.492188 C 9.730469 -29.429688 9.730469 -29.308594 9.730469 -29.25 C 9.730469 -29.1875 9.667969 -29.066406 9.609375 -29.003906 Z M 9.609375 -29.003906 "/></g></g></g><g fill="#fa3343" fill-opacity="1"><g transform="translate(176.967576, 83.843275)"><g/></g></g><g fill="#fa3343" fill-opacity="1"><g transform="translate(200.074158, 83.843275)"><g><path d="M 1.15625 5.65625 C 1.460938 5.65625 1.761719 5.535156 2.007812 5.289062 C 2.3125 5.046875 2.554688 4.804688 2.738281 4.5 C 2.917969 4.195312 3.101562 3.832031 3.285156 3.527344 C 3.832031 2.613281 4.316406 1.640625 4.804688 0.667969 C 5.289062 -0.304688 5.777344 -1.277344 6.261719 -2.25 C 7.417969 -4.4375 9.789062 -9.121094 11.675781 -12.527344 C 12.832031 -14.53125 14.046875 -16.601562 15.324219 -18.730469 C 17.9375 -22.925781 20.613281 -26.753906 23.289062 -29.550781 C 24.628906 -30.949219 25.902344 -31.925781 27.058594 -32.53125 C 27.484375 -32.773438 27.851562 -32.898438 28.152344 -32.898438 C 28.761719 -32.898438 29.125 -32.410156 29.308594 -31.4375 C 29.492188 -30.648438 29.492188 -29.796875 29.371094 -28.824219 C 28.398438 -21.953125 25.054688 -14.167969 19.03125 -10.277344 C 18.363281 -9.851562 17.695312 -9.425781 16.90625 -9.242188 C 16.113281 -9.242188 15.566406 -9.425781 15.566406 -10.335938 C 15.628906 -11.734375 16.054688 -12.953125 17.269531 -13.742188 C 17.511719 -13.925781 17.757812 -14.046875 18 -14.230469 C 18.242188 -14.410156 18.484375 -14.59375 18.730469 -14.777344 C 19.03125 -15.019531 19.09375 -15.324219 18.851562 -15.6875 C 18.789062 -15.871094 18.546875 -15.992188 18.242188 -15.992188 L 18 -15.992188 C 17.9375 -15.992188 17.878906 -15.992188 17.816406 -15.929688 C 16.84375 -15.445312 15.929688 -14.957031 15.261719 -14.046875 C 14.167969 -12.769531 13.804688 -11.308594 14.105469 -9.609375 C 14.289062 -8.332031 15.082031 -7.660156 16.480469 -7.660156 C 19.519531 -7.660156 23.652344 -11.796875 25.355469 -14.167969 C 28.457031 -18.484375 30.160156 -23.167969 30.890625 -28.335938 C 30.949219 -28.761719 31.011719 -29.1875 31.011719 -29.613281 C 30.949219 -30.039062 30.949219 -30.464844 30.949219 -30.890625 C 31.011719 -31.558594 30.769531 -32.167969 30.527344 -32.835938 C 30.039062 -33.929688 29.25 -34.476562 28.214844 -34.476562 C 28.03125 -34.476562 27.726562 -34.417969 27.300781 -34.355469 C 24.808594 -33.6875 21.828125 -30.585938 18.730469 -26.511719 C 17.207031 -24.445312 15.6875 -22.195312 14.167969 -19.761719 C 11.1875 -14.835938 8.453125 -9.972656 6.261719 -5.714844 C 5.167969 -3.585938 4.257812 -1.761719 3.585938 -0.363281 C 3.160156 0.425781 2.796875 1.15625 2.371094 1.886719 C 2.3125 2.066406 2.1875 2.1875 2.066406 2.1875 C 2.007812 2.1875 1.945312 2.1875 1.886719 2.128906 C 1.824219 2.066406 1.761719 1.945312 1.761719 1.640625 C 1.761719 1.335938 1.761719 1.15625 1.824219 1.035156 C 2.371094 -4.316406 3.710938 -10.035156 5.410156 -15.628906 C 7.113281 -21.160156 9.183594 -26.632812 11.308594 -31.5 C 11.554688 -32.046875 11.796875 -32.652344 12.039062 -33.199219 C 12.28125 -33.75 12.527344 -34.296875 12.707031 -34.84375 C 12.832031 -35.148438 12.890625 -35.449219 12.890625 -35.753906 C 12.890625 -36.179688 12.585938 -36.363281 12.160156 -36.363281 C 12.039062 -36.363281 11.917969 -36.300781 11.859375 -36.242188 C 11.613281 -35.816406 11.371094 -35.449219 11.128906 -35.023438 C 8.632812 -29.429688 6.019531 -22.984375 4.011719 -16.417969 C 2.007812 -9.851562 0.488281 -3.101562 0 3.160156 C 0.0625 3.34375 0.0625 3.585938 0.0625 3.890625 C 0 4.195312 0.0625 4.4375 0.121094 4.742188 C 0.304688 5.351562 0.667969 5.65625 1.15625 5.65625 Z M 1.15625 5.65625 "/></g></g></g></svg>