<svg xmlns="http://www.w3.org/2000/svg" xmlns:xlink="http://www.w3.org/1999/xlink" width="1920" zoomAndPan="magnify" viewBox="0 0 1440 809.999993" height="1080" preserveAspectRatio="xMidYMid meet" version="1.0"><defs><clipPath id="5f45e9767a"><path d="M 644 317 L 882 317 L 882 493 L 644 493 Z M 644 317 " clip-rule="nonzero"/></clipPath><clipPath id="9f1716c5ec"><path d="M 882.605469 404.695312 L 719.792969 567.507812 L 556.984375 404.695312 L 719.792969 241.882812 Z M 882.605469 404.695312 " clip-rule="nonzero"/></clipPath><clipPath id="7e7bf52a35"><path d="M 882.605469 404.695312 L 719.792969 567.507812 L 556.984375 404.695312 L 719.792969 241.882812 Z M 882.605469 404.695312 " clip-rule="nonzero"/></clipPath><clipPath id="4980087de5"><path d="M 784 386 L 821 386 L 821 423 L 784 423 Z M 784 386 " clip-rule="nonzero"/></clipPath><clipPath id="a3ef33181a"><path d="M 882.605469 404.695312 L 719.792969 567.507812 L 556.984375 404.695312 L 719.792969 241.882812 Z M 882.605469 404.695312 " clip-rule="nonzero"/></clipPath><clipPath id="56e6ae8e85"><path d="M 882.605469 404.695312 L 719.792969 567.507812 L 556.984375 404.695312 L 719.792969 241.882812 Z M 882.605469 404.695312 " clip-rule="nonzero"/></clipPath><clipPath id="72bfaf73bc"><path d="M 776 379 L 828 379 L 828 431 L 776 431 Z M 776 379 " clip-rule="nonzero"/></clipPath><clipPath id="99c60b27fd"><path d="M 882.605469 404.695312 L 719.792969 567.507812 L 556.984375 404.695312 L 719.792969 241.882812 Z M 882.605469 404.695312 " clip-rule="nonzero"/></clipPath><clipPath id="2cb5b3bbe0"><path d="M 882.605469 404.695312 L 719.792969 567.507812 L 556.984375 404.695312 L 719.792969 241.882812 Z M 882.605469 404.695312 " clip-rule="nonzero"/></clipPath><clipPath id="08144ab564"><path d="M 654 408 L 665 408 L 665 444 L 654 444 Z M 654 408 " clip-rule="nonzero"/></clipPath><clipPath id="e24bd45960"><path d="M 882.605469 404.695312 L 719.792969 567.507812 L 556.984375 404.695312 L 719.792969 241.882812 Z M 882.605469 404.695312 " clip-rule="nonzero"/></clipPath><clipPath id="b3c38569aa"><path d="M 882.605469 404.695312 L 719.792969 567.507812 L 556.984375 404.695312 L 719.792969 241.882812 Z M 882.605469 404.695312 " clip-rule="nonzero"/></clipPath><clipPath id="055078c2ad"><path d="M 654 365 L 665 365 L 665 401 L 654 401 Z M 654 365 " clip-rule="nonzero"/></clipPath><clipPath id="de0bfb69b4"><path d="M 882.605469 404.695312 L 719.792969 567.507812 L 556.984375 404.695312 L 719.792969 241.882812 Z M 882.605469 404.695312 " clip-rule="nonzero"/></clipPath><clipPath id="03ec39759d"><path d="M 882.605469 404.695312 L 719.792969 567.507812 L 556.984375 404.695312 L 719.792969 241.882812 Z M 882.605469 404.695312 " clip-rule="nonzero"/></clipPath><clipPath id="e32e7965a0"><path d="M 644 400 L 751 400 L 751 409 L 644 409 Z M 644 400 " clip-rule="nonzero"/></clipPath><clipPath id="4ba92a7b9f"><path d="M 882.605469 404.695312 L 719.792969 567.507812 L 556.984375 404.695312 L 719.792969 241.882812 Z M 882.605469 404.695312 " clip-rule="nonzero"/></clipPath><clipPath id="01da24321b"><path d="M 882.605469 404.695312 L 719.792969 567.507812 L 556.984375 404.695312 L 719.792969 241.882812 Z M 882.605469 404.695312 " clip-rule="nonzero"/></clipPath><clipPath id="2ccdcbdf85"><path d="M 644 317 L 751 317 L 751 366 L 644 366 Z M 644 317 " clip-rule="nonzero"/></clipPath><clipPath id="a581b442cc"><path d="M 882.605469 404.695312 L 719.792969 567.507812 L 556.984375 404.695312 L 719.792969 241.882812 Z M 882.605469 404.695312 " clip-rule="nonzero"/></clipPath><clipPath id="c47936ae63"><path d="M 882.605469 404.695312 L 719.792969 567.507812 L 556.984375 404.695312 L 719.792969 241.882812 Z M 882.605469 404.695312 " clip-rule="nonzero"/></clipPath><clipPath id="215e78bc3d"><path d="M 644 443 L 751 443 L 751 493 L 644 493 Z M 644 443 " clip-rule="nonzero"/></clipPath><clipPath id="4b08905fc8"><path d="M 882.605469 404.695312 L 719.792969 567.507812 L 556.984375 404.695312 L 719.792969 241.882812 Z M 882.605469 404.695312 " clip-rule="nonzero"/></clipPath><clipPath id="9cca48798d"><path d="M 882.605469 404.695312 L 719.792969 567.507812 L 556.984375 404.695312 L 719.792969 241.882812 Z M 882.605469 404.695312 " clip-rule="nonzero"/></clipPath><clipPath id="73c7c54de2"><path d="M 849 385 L 882 385 L 882 425 L 849 425 Z M 849 385 " clip-rule="nonzero"/></clipPath><clipPath id="80336810d0"><path d="M 882.605469 404.695312 L 719.792969 567.507812 L 556.984375 404.695312 L 719.792969 241.882812 Z M 882.605469 404.695312 " clip-rule="nonzero"/></clipPath><clipPath id="4229b848db"><path d="M 882.605469 404.695312 L 719.792969 567.507812 L 556.984375 404.695312 L 719.792969 241.882812 Z M 882.605469 404.695312 " clip-rule="nonzero"/></clipPath></defs><g clip-path="url(#5f45e9767a)"><g clip-path="url(#9f1716c5ec)"><g clip-path="url(#7e7bf52a35)"><path fill="#737373" d="M 664.75 443.792969 L 644.4375 492.335938 L 737.582031 469.28125 L 750.492188 450.476562 C 794.164062 448.351562 831.503906 442.179688 859.117188 424.238281 C 867.414062 418.851562 874.832031 412.402344 881.28125 404.695312 C 874.832031 396.988281 867.414062 390.539062 859.117188 385.152344 C 831.503906 367.210938 794.164062 361.039062 750.492188 358.914062 L 737.582031 340.109375 L 644.4375 317.054688 L 664.75 365.597656 L 654.359375 365.613281 L 654.359375 400.421875 L 644.421875 400.421875 L 644.421875 408.96875 L 654.359375 408.96875 L 654.359375 443.777344 Z M 664.75 443.792969 " fill-opacity="1" fill-rule="nonzero"/></g></g></g><g clip-path="url(#4980087de5)"><g clip-path="url(#a3ef33181a)"><g clip-path="url(#56e6ae8e85)"><path fill="#ae2c36" d="M 802.289062 422.558594 C 792.417969 422.570312 784.410156 414.5625 784.425781 404.695312 C 784.410156 394.828125 792.417969 386.820312 802.289062 386.832031 C 812.144531 386.832031 820.152344 394.839844 820.152344 404.695312 C 820.152344 414.550781 812.144531 422.558594 802.289062 422.558594 Z M 802.289062 422.558594 " fill-opacity="1" fill-rule="nonzero"/></g></g></g><g clip-path="url(#72bfaf73bc)"><g clip-path="url(#99c60b27fd)"><g clip-path="url(#2cb5b3bbe0)"><path fill="#a6a6a6" d="M 802.289062 430.238281 C 788.1875 430.238281 776.746094 418.796875 776.746094 404.695312 C 776.746094 390.59375 788.1875 379.152344 802.289062 379.152344 C 816.390625 379.152344 827.832031 390.59375 827.832031 404.695312 C 827.832031 418.796875 816.390625 430.238281 802.289062 430.238281 Z M 784.425781 404.695312 C 784.410156 414.5625 792.417969 422.570312 802.289062 422.558594 C 812.144531 422.558594 820.152344 414.550781 820.152344 404.695312 C 820.152344 394.839844 812.144531 386.832031 802.289062 386.832031 C 792.417969 386.820312 784.410156 394.828125 784.425781 404.695312 Z M 784.425781 404.695312 " fill-opacity="1" fill-rule="nonzero"/></g></g></g><g clip-path="url(#08144ab564)"><g clip-path="url(#e24bd45960)"><g clip-path="url(#b3c38569aa)"><path fill="#ae2c36" d="M 664.75 443.792969 L 654.359375 443.777344 L 654.359375 408.96875 L 664.75 408.953125 Z M 664.75 443.792969 " fill-opacity="1" fill-rule="nonzero"/></g></g></g><g clip-path="url(#055078c2ad)"><g clip-path="url(#de0bfb69b4)"><g clip-path="url(#03ec39759d)"><path fill="#ae2c36" d="M 664.75 400.4375 L 654.359375 400.421875 L 654.359375 365.613281 L 664.75 365.597656 Z M 664.75 400.4375 " fill-opacity="1" fill-rule="nonzero"/></g></g></g><g clip-path="url(#e32e7965a0)"><g clip-path="url(#4ba92a7b9f)"><g clip-path="url(#01da24321b)"><path fill="#be3a3c" d="M 644.421875 408.96875 L 644.421875 400.421875 L 654.359375 400.421875 L 664.75 400.4375 L 750.492188 400.4375 L 750.492188 408.953125 L 664.75 408.953125 L 654.359375 408.96875 Z M 644.421875 408.96875 " fill-opacity="1" fill-rule="nonzero"/></g></g></g><g clip-path="url(#2ccdcbdf85)"><g clip-path="url(#a581b442cc)"><g clip-path="url(#c47936ae63)"><path fill="#ae2c36" d="M 664.75 365.597656 L 644.4375 317.054688 L 737.582031 340.109375 L 750.492188 358.914062 C 727.898438 357.8125 703.613281 357.800781 678.105469 357.800781 C 674.816406 357.789062 671.632812 359.058594 669.246094 361.339844 Z M 664.75 365.597656 " fill-opacity="1" fill-rule="nonzero"/></g></g></g><g clip-path="url(#215e78bc3d)"><g clip-path="url(#4b08905fc8)"><g clip-path="url(#9cca48798d)"><path fill="#ae2c36" d="M 644.4375 492.335938 L 664.75 443.792969 L 669.246094 448.050781 C 671.632812 450.332031 674.816406 451.601562 678.105469 451.589844 C 703.609375 451.589844 727.898438 451.578125 750.492188 450.476562 L 737.582031 469.28125 Z M 644.4375 492.335938 " fill-opacity="1" fill-rule="nonzero"/></g></g></g><g clip-path="url(#73c7c54de2)"><g clip-path="url(#80336810d0)"><g clip-path="url(#4229b848db)"><path fill="#ae2c36" d="M 859.117188 424.238281 C 859.117188 424.238281 849.796875 419.375 849.796875 404.695312 C 849.796875 390.015625 859.117188 385.152344 859.117188 385.152344 C 867.414062 390.539062 874.832031 396.988281 881.28125 404.695312 C 874.832031 412.402344 867.414062 418.851562 859.117188 424.238281 Z M 859.117188 424.238281 " fill-opacity="1" fill-rule="nonzero"/></g></g></g></svg>